<svg width="16" height="19" viewBox="0 0 16 19" fill="none" xmlns="http://www.w3.org/2000/svg">
<path d="M15.6778 9.63306C15.6778 9.74052 15.6584 9.84693 15.6206 9.94619C15.5829 10.0454 15.5275 10.1356 15.4578 10.2114L7.95779 18.396C7.88913 18.4764 7.80633 18.5409 7.71433 18.5856C7.62233 18.6304 7.52302 18.6544 7.42232 18.6564C7.32161 18.6583 7.22159 18.6381 7.1282 18.5969C7.03481 18.5558 6.94998 18.4945 6.87876 18.4168C6.80754 18.3391 6.75139 18.2465 6.71367 18.1446C6.67595 18.0427 6.65743 17.9335 6.6592 17.8236C6.66098 17.7137 6.68302 17.6053 6.72401 17.5049C6.765 17.4045 6.82411 17.3142 6.89779 17.2392L13.8678 9.63306L6.89779 2.02687C6.82411 1.95194 6.765 1.86158 6.72401 1.76119C6.68302 1.66079 6.66098 1.55241 6.6592 1.44252C6.65743 1.33262 6.67595 1.22346 6.71367 1.12155C6.75139 1.01964 6.80754 0.927065 6.87876 0.849344C6.94998 0.771626 7.03481 0.710356 7.1282 0.669191C7.22159 0.628029 7.32161 0.607811 7.42232 0.609751C7.52302 0.611689 7.62233 0.635744 7.71433 0.680477C7.80633 0.725212 7.88913 0.789709 7.95779 0.870123L15.4578 9.05468C15.5275 9.13054 15.5829 9.22068 15.6206 9.31993C15.6584 9.41919 15.6778 9.5256 15.6778 9.63306ZM9.45779 9.05468L1.95779 0.870123C1.81628 0.721106 1.62679 0.638702 1.43014 0.640669C1.23349 0.642633 1.04542 0.728809 0.906432 0.880629C0.767441 1.03245 0.688653 1.23777 0.687037 1.45237C0.685422 1.66697 0.761107 1.87367 0.897793 2.02796L7.86779 9.63415L0.897793 17.2403C0.765313 17.3955 0.693191 17.6007 0.69662 17.8127C0.700048 18.0248 0.77876 18.2271 0.916173 18.377C1.05359 18.527 1.23897 18.6129 1.43327 18.6166C1.62757 18.6204 1.81562 18.5417 1.95779 18.3971L9.45779 10.2125C9.59824 10.0591 9.67713 9.85104 9.67713 9.63415C9.67713 9.41726 9.59824 9.20924 9.45779 9.05578V9.05468Z" fill="#BCBCBC"/>
</svg>
