<svg width="15" height="16" viewBox="0 0 15 16" fill="none" xmlns="http://www.w3.org/2000/svg">
<path d="M8.61734 8.0125L14.7693 1.86084C14.9173 1.71272 15.0004 1.51189 15.0003 1.30252C15.0002 1.09314 14.917 0.892383 14.7688 0.7444C14.6207 0.596417 14.4199 0.513334 14.2105 0.513428C14.0011 0.513522 13.8003 0.596785 13.6523 0.7449L7.50034 6.89756L1.34834 0.7449C1.20021 0.596785 0.999316 0.513574 0.789838 0.513574C0.58036 0.513574 0.379462 0.596785 0.231338 0.7449C0.0832149 0.893015 9.88443e-09 1.0939 8.3237e-09 1.30337C6.76296e-09 1.51284 0.0832149 1.71372 0.231338 1.86184L6.38434 8.0125L0.231338 14.1652C0.0832149 14.3133 0 14.5142 0 14.7236C0 14.9331 0.0832149 15.134 0.231338 15.2821C0.379462 15.4302 0.58036 15.5134 0.789838 15.5134C0.999316 15.5134 1.20021 15.4302 1.34834 15.2821L7.50034 9.12944L13.6523 15.2811C13.8003 15.4292 14.0011 15.5125 14.2105 15.5126C14.4199 15.5127 14.6207 15.4296 14.7688 15.2816C14.917 15.1336 15.0002 14.9329 15.0003 14.7235C15.0004 14.5141 14.9173 14.3133 14.7693 14.1652L8.61734 8.0125Z" fill="#5D5D5D"/>
</svg>
