<svg width="26" height="26" viewBox="0 0 26 26" fill="none" xmlns="http://www.w3.org/2000/svg">
<path d="M26 13.2031C26 16.3392 23.4481 18.8906 20.3125 18.8906H16.25C15.8009 18.8906 15.4375 18.5268 15.4375 18.0781C15.4375 17.6294 15.8009 17.2656 16.25 17.2656H20.3125C22.5524 17.2656 24.375 15.443 24.375 13.2031C24.375 10.9633 22.5524 9.14062 20.3125 9.14062H19.5C19.0509 9.14062 18.6875 8.77683 18.6875 8.32812C18.6875 5.19208 16.1356 2.64062 13 2.64062C9.86436 2.64062 7.3125 5.19208 7.3125 8.32812C7.3125 8.77683 6.94911 9.14062 6.5 9.14062H5.6875C3.44764 9.14062 1.625 10.9633 1.625 13.2031C1.625 15.443 3.44764 17.2656 5.6875 17.2656H9.75C10.1991 17.2656 10.5625 17.6294 10.5625 18.0781C10.5625 18.5268 10.1991 18.8906 9.75 18.8906H5.6875C2.55186 18.8906 0 16.3392 0 13.2031C0 10.0671 2.55186 7.51562 5.6875 7.51562H5.7328C6.13823 3.86445 9.24219 1.01562 13 1.01562C16.7578 1.01562 19.8618 3.86445 20.2672 7.51562H20.3125C23.4483 7.51562 26 10.0671 26 13.2031ZM15.6756 20.7537L13.8125 22.6168V12.3906C13.8125 11.9419 13.4491 11.5781 13 11.5781C12.5509 11.5781 12.1875 11.9419 12.1875 12.3906V22.6168L10.3244 20.7537C10.007 20.4362 9.49284 20.4362 9.17556 20.7537C8.85828 21.0712 8.85808 21.5853 9.17556 21.9026L12.4256 25.1526C12.5842 25.3112 12.7922 25.3906 13 25.3906C13.2078 25.3906 13.4158 25.3112 13.5744 25.1526L16.8244 21.9026C17.1419 21.5851 17.1419 21.071 16.8244 20.7537C16.507 20.4364 15.9928 20.4362 15.6756 20.7537Z" fill="white"/>
</svg>
