<svg width="60" height="60" viewBox="0 0 60 60" fill="none" xmlns="http://www.w3.org/2000/svg">
<circle cx="30" cy="30" r="30" fill="#82C000"/>
<ellipse cx="21.0591" cy="21.4951" rx="2.67961" ry="3.78641" fill="black"/>
<ellipse cx="38.7675" cy="21.4951" rx="2.67961" ry="3.78641" fill="black"/>
<path d="M29.9904 42.2157C25.0202 42.2157 20.4538 40.7 17.4623 38.0576C16.622 37.3152 16.5425 36.0329 17.2845 35.1927C18.0265 34.3525 19.3091 34.273 20.1493 35.0149C22.3761 36.982 26.0548 38.1562 29.9904 38.1562C33.9249 38.1562 37.6032 36.9824 39.8303 35.0158C40.6706 34.2738 41.9536 34.3533 42.6952 35.1939C43.4372 36.0342 43.3572 37.3164 42.5174 38.0588C39.5251 40.7008 34.9595 42.2157 29.9904 42.2157Z" fill="black"/>
</svg>
