<svg width="36" height="35" viewBox="0 0 36 35" fill="none" xmlns="http://www.w3.org/2000/svg">
<path d="M29.6247 0.205322H5.78605C2.8173 0.205322 0.410645 2.61197 0.410645 5.58073V29.4193C0.410645 32.3881 2.8173 34.7947 5.78605 34.7947H29.6247C32.5934 34.7947 35.0001 32.3881 35.0001 29.4193V5.58073C35.0001 2.61197 32.5934 0.205322 29.6247 0.205322Z" fill="white"/>
<path d="M29.6245 0.54126H5.78591C3.0027 0.54126 0.74646 2.7975 0.74646 5.58071V29.4193C0.74646 32.2025 3.0027 34.4587 5.78591 34.4587H29.6245C32.4077 34.4587 34.6639 32.2025 34.6639 29.4193V5.58071C34.6639 2.7975 32.4077 0.54126 29.6245 0.54126Z" stroke="#AEBAC8"/>
<path d="M19.3965 24.1978C19.1956 24.3985 18.9233 24.5112 18.6393 24.5112C18.3553 24.5111 18.083 24.3983 17.8823 24.1974C17.6815 23.9966 17.5688 23.7242 17.5688 23.4403C17.5689 23.1563 17.6818 22.884 17.8826 22.6832L21.9961 18.5704H10.0849C9.80102 18.5704 9.52877 18.4576 9.32803 18.2569C9.1273 18.0561 9.01453 17.7839 9.01453 17.5C9.01453 17.2161 9.1273 16.9439 9.32803 16.7431C9.52877 16.5424 9.80102 16.4296 10.0849 16.4296H21.9968L17.8826 12.3154C17.7832 12.216 17.7044 12.098 17.6506 11.9681C17.5968 11.8383 17.5691 11.6991 17.5691 11.5585C17.5691 11.4179 17.5968 11.2787 17.6506 11.1488C17.7044 11.019 17.7832 10.901 17.8826 10.8016C17.982 10.7022 18.1 10.6233 18.2299 10.5695C18.3598 10.5157 18.499 10.488 18.6395 10.488C18.7801 10.488 18.9193 10.5157 19.0492 10.5695C19.179 10.6233 19.2971 10.7022 19.3965 10.8016L25.3376 16.7427C25.437 16.8421 25.5159 16.9601 25.5697 17.09C25.6235 17.2199 25.6512 17.3591 25.6512 17.4997C25.6512 17.6402 25.6235 17.7794 25.5697 17.9093C25.5159 18.0392 25.437 18.1572 25.3376 18.2566L19.3965 24.1978Z" fill="#0F1E47"/>
</svg>
