<svg width="70" height="70" viewBox="0 0 70 70" fill="none" xmlns="http://www.w3.org/2000/svg">
<rect width="70" height="70" rx="35" fill="#F5F5F5"/>
<g clip-path="url(#clip0_885_2686)">
<path d="M54.3607 33.4477L39.9152 19.002C39.5029 18.5896 38.9533 18.3633 38.3673 18.3633C37.7806 18.3633 37.2314 18.5899 36.819 19.002L35.5075 20.3138C35.0954 20.7255 34.8685 21.2755 34.8685 21.8618C34.8685 22.4478 35.0954 23.0163 35.5075 23.428L43.9347 31.8737H17.161C15.9538 31.8737 15 32.8188 15 34.0262V35.8809C15 37.0883 15.9538 38.1286 17.161 38.1286H44.0303L35.5078 46.6216C35.0958 47.0339 34.8688 47.5689 34.8688 48.1552C34.8688 48.7409 35.0958 49.2837 35.5078 49.6957L36.8193 51.0033C37.2317 51.4157 37.781 51.6404 38.3676 51.6404C38.9536 51.6404 39.5032 51.4128 39.9156 51.0004L54.361 36.555C54.7743 36.1413 55.0016 35.5892 55 35.0022C55.0013 34.4132 54.7743 33.8607 54.3607 33.4477Z" fill="#CCCCCC"/>
</g>
<defs>
<clipPath id="clip0_885_2686">
<rect width="40" height="40" fill="white" transform="translate(15 15)"/>
</clipPath>
</defs>
</svg>
