<svg width="17" height="22" viewBox="0 0 17 22" fill="none" xmlns="http://www.w3.org/2000/svg">
<path d="M15.2867 5.59718L12.3741 2.68452C11.2692 1.57963 9.79991 0.971192 8.23702 0.971192H4.46352C2.1593 0.970356 0.284668 2.84499 0.284668 5.14921V16.85C0.284668 19.1542 2.1593 21.0288 4.46352 21.0288H12.8212C15.1254 21.0288 17.0001 19.1542 17.0001 16.85V9.7334C17.0001 8.17051 16.3916 6.7029 15.2867 5.59718ZM14.105 6.77896C14.3707 7.04473 14.5956 7.33976 14.7778 7.65652H11.1497C10.6892 7.65652 10.3139 7.28125 10.3139 6.82075V3.19267C10.6307 3.37487 10.9265 3.59969 11.1915 3.86546L14.1041 6.77812L14.105 6.77896ZM15.3285 16.85C15.3285 18.2323 14.2036 19.3573 12.8212 19.3573H4.46352C3.08115 19.3573 1.95621 18.2323 1.95621 16.85V5.14921C1.95621 3.76684 3.08115 2.6419 4.46352 2.6419H8.23702C8.37325 2.6419 8.50864 2.64858 8.64237 2.66112V6.82075C8.64237 8.20311 9.76731 9.32806 11.1497 9.32806H15.3093C15.3218 9.46178 15.3285 9.59717 15.3285 9.7334V16.85ZM11.7406 13.0731C12.0674 13.3999 12.0674 13.9281 11.7406 14.2549C11.5776 14.4179 11.3636 14.4998 11.1497 14.4998C10.9357 14.4998 10.7218 14.4179 10.5588 14.2549L9.47814 13.1743V16.85C9.47814 17.3113 9.10371 17.6858 8.64237 17.6858C8.18102 17.6858 7.8066 17.3113 7.8066 16.85V13.1743L6.72595 14.2549C6.39916 14.5817 5.87095 14.5817 5.54417 14.2549C5.21738 13.9281 5.21738 13.3999 5.54417 13.0731L6.8931 11.7242C7.85758 10.7597 9.42716 10.7597 10.3925 11.7242L11.7414 13.0731H11.7406Z" fill="#606060"/>
</svg>
