<?xml version="1.0" encoding="UTF-8"?>
<svg version="1.1" xmlns="http://www.w3.org/2000/svg" width="204" height="192">
<path d="M0 0 C67.32 0 134.64 0 204 0 C204 63.36 204 126.72 204 192 C136.68 192 69.36 192 0 192 C0 128.64 0 65.28 0 0 Z " fill="#FCFCFC" transform="translate(0,0)"/>
<path d="M0 0 C0.7222023 -0.00014603 1.4444046 -0.00029205 2.18849182 -0.0004425 C4.57466642 0.00025394 6.96076287 0.00803379 9.34692383 0.01586914 C11.00173398 0.01773427 12.65654469 0.01915773 14.31135559 0.02015686 C18.66626511 0.02397454 23.02114126 0.03379844 27.3760376 0.04486084 C31.82010446 0.05509106 36.26417671 0.05965794 40.70825195 0.06469727 C49.42767001 0.07542137 58.14705455 0.09301212 66.86645508 0.11352539 C66.86645508 5.39352539 66.86645508 10.67352539 66.86645508 16.11352539 C64.80766113 16.12287109 62.74886719 16.1322168 60.62768555 16.1418457 C53.81423591 16.17566083 47.00108771 16.2312348 40.18787956 16.29742813 C36.05826131 16.33688429 31.92885568 16.3690817 27.79907227 16.38452148 C23.81119209 16.39970064 19.82389654 16.43416765 15.83627701 16.48183441 C14.31735449 16.4966354 12.79834849 16.50456567 11.2793541 16.50540924 C9.14613774 16.50778472 7.01452955 16.53490619 4.8815918 16.56762695 C3.66913788 16.5765094 2.45668396 16.58539185 1.20748901 16.59454346 C-2.98581635 17.24591359 -5.05796216 18.16841754 -8.13354492 21.11352539 C-8.74930813 24.21211056 -8.9533768 26.5441945 -8.90649414 29.64575195 C-8.91712387 30.50465027 -8.9277536 31.36354858 -8.93870544 32.24847412 C-8.96678584 35.08429344 -8.95269005 37.91825532 -8.93823242 40.75415039 C-8.94948072 42.72143176 -8.96336055 44.68869971 -8.97976685 46.65594482 C-9.01585339 51.83134114 -9.01617221 57.00614731 -9.00909424 62.18164062 C-9.00818235 67.46373092 -9.04102539 72.74559884 -9.07104492 78.02758789 C-9.12495276 88.38962885 -9.14108347 98.75135973 -9.13354492 109.11352539 C-8.54845154 109.10763397 -7.96335815 109.10174255 -7.36053467 109.09567261 C-4.65467747 109.07197911 -1.94884223 109.05755524 0.75708008 109.04321289 C1.6769873 109.03378662 2.59689453 109.02436035 3.54467773 109.01464844 C23.22043864 108.93677603 42.05876336 113.75561456 58.86645508 124.11352539 C59.60766602 124.55051758 60.34887695 124.98750977 61.11254883 125.43774414 C70.33115227 131.17266856 78.14547967 138.64330657 84.61645508 147.30102539 C87.31304569 150.85080363 87.31304569 150.85080363 91.09301758 152.94165039 C94.22913561 153.10130731 96.36101196 152.49260773 98.86645508 150.61352539 C100.32914675 146.95679621 100.81217796 143.91653867 99.86645508 140.11352539 C97.86782379 136.80486687 95.42772581 133.99764537 92.86645508 131.11352539 C92.06208008 130.08227539 91.25770508 129.05102539 90.42895508 127.98852539 C80.10835753 116.40931839 66.81309025 108.48444349 52.59350586 102.62548828 C46.95621891 100.29305305 46.95621891 100.29305305 45.86645508 98.11352539 C57.61865464 91.42884159 68.77980788 86.46095199 81.86645508 83.11352539 C83.51525245 82.58094925 85.1615999 82.04064821 86.80395508 81.48852539 C102.4913467 76.80095166 119.1063022 76.0402019 135.36645508 76.09399414 C136.18887695 76.09540405 137.01129883 76.09681396 137.85864258 76.0982666 C139.8612499 76.10190506 141.86385349 76.10750796 143.86645508 76.11352539 C143.98272356 85.58911631 144.07135897 95.06445861 144.12551594 104.54060936 C144.15151945 108.94163736 144.18674615 113.3421744 144.24365234 117.74291992 C144.29830522 121.99642328 144.32794502 126.24945685 144.34084129 130.50328445 C144.35002193 132.11950696 144.36794882 133.73570612 144.39510536 135.35172653 C144.56011729 145.58579406 144.24049918 154.3616275 136.87617493 162.2437439 C128.98686942 169.80889786 121.747576 170.55954488 111.18920898 170.53344727 C109.92492569 170.54191681 108.6606424 170.55038635 107.35804749 170.55911255 C103.90542914 170.58124546 100.45305004 170.58426339 97.0003705 170.58236504 C94.11040951 170.58224495 91.22049851 170.59082468 88.33055151 170.59914255 C81.50817523 170.61834718 74.68592129 170.62127128 67.86352539 170.61450195 C60.84297548 170.60786377 53.82295131 170.63072277 46.802508 170.66781569 C40.75893348 170.69857975 34.7155275 170.70986548 28.67187631 170.70597887 C25.06933444 170.70391819 21.46720183 170.709284 17.86473465 170.73387146 C13.84363623 170.76041192 9.82363782 170.74636002 5.80249023 170.72875977 C4.62089828 170.74202301 3.43930634 170.75528625 2.22190857 170.76895142 C-6.30079847 170.68246118 -11.98242275 168.70178354 -18.43823242 163.12133789 C-18.95643555 162.50000977 -19.47463867 161.87868164 -20.00854492 161.23852539 C-20.5422168 160.62235352 -21.07588867 160.00618164 -21.62573242 159.37133789 C-26.45017488 152.14717275 -26.57451759 145.95284295 -26.5534668 137.4362793 C-26.56193634 136.171996 -26.57040588 134.90771271 -26.57913208 133.6051178 C-26.60126499 130.15249945 -26.60428292 126.70012035 -26.60238457 123.24744081 C-26.60226448 120.35747983 -26.61084421 117.46756882 -26.61916208 114.57762182 C-26.63836671 107.75524554 -26.64129081 100.9329916 -26.63452148 94.1105957 C-26.6278833 87.0900458 -26.6507423 80.07002162 -26.68783522 73.04957831 C-26.71859929 67.00600379 -26.72988501 60.96259781 -26.7259984 54.91894662 C-26.72393772 51.31640476 -26.72930353 47.71427214 -26.75389099 44.11180496 C-26.78043145 40.09070654 -26.76637955 36.07070813 -26.7487793 32.04956055 C-26.76204254 30.8679686 -26.77530579 29.68637665 -26.78897095 28.46897888 C-26.69889225 19.59266663 -24.48749234 13.98346472 -18.69604492 7.30102539 C-12.44541401 1.96512096 -8.18075592 -0.01388923 0 0 Z " fill="#020202" transform="translate(43.133544921875,10.886474609375)"/>
<path d="M0 0 C2.64453125 1.37890625 2.64453125 1.37890625 5 4 C5.6305217 7.59757011 5.46994579 11.11179122 5.3125 14.75 C5.28994141 15.73355469 5.26738281 16.71710937 5.24414062 17.73046875 C5.18528805 20.1551947 5.10313431 22.57681983 5 25 C5.92280762 24.96072388 5.92280762 24.96072388 6.86425781 24.9206543 C9.65924408 24.81654079 12.45382258 24.75163251 15.25 24.6875 C16.21808594 24.64560547 17.18617188 24.60371094 18.18359375 24.56054688 C25.35469001 24.43690728 25.35469001 24.43690728 28.63671875 27.30078125 C30.44546503 30.88199523 30.63681572 33.03759111 30 37 C28.109375 39.69921875 28.109375 39.69921875 25 42 C21.53971225 42.60400707 18.18647085 42.47323011 14.6875 42.3125 C13.29047852 42.27866211 13.29047852 42.27866211 11.86523438 42.24414062 C9.5751604 42.18542078 7.28842125 42.10336858 5 42 C5.02618408 42.57967529 5.05236816 43.15935059 5.0793457 43.7565918 C5.18370612 46.39994875 5.24844327 49.04287199 5.3125 51.6875 C5.35439453 52.59951172 5.39628906 53.51152344 5.43945312 54.45117188 C5.52382678 59.09172283 5.53507886 61.2777798 2.69921875 65.10546875 C0 67 0 67 -3.5 67.625 C-8.0510927 66.81230487 -9.25253823 65.70837369 -12 62 C-12.60406771 58.53973456 -12.47322935 55.18645439 -12.3125 51.6875 C-12.28994141 50.75615234 -12.26738281 49.82480469 -12.24414062 48.86523438 C-12.18542078 46.5751604 -12.10336858 44.28842125 -12 42 C-12.57967529 42.02618408 -13.15935059 42.05236816 -13.7565918 42.0793457 C-16.39994875 42.18370612 -19.04287199 42.24844327 -21.6875 42.3125 C-23.05551758 42.3753418 -23.05551758 42.3753418 -24.45117188 42.43945312 C-29.09298314 42.52384969 -31.27893916 42.53354879 -35.109375 39.69921875 C-37.59382878 36.152199 -37.68282582 34.24869399 -37 30 C-35.63671875 27.30078125 -35.63671875 27.30078125 -33 25 C-29.40111557 24.37487221 -25.88874706 24.53003092 -22.25 24.6875 C-21.26644531 24.71005859 -20.28289062 24.73261719 -19.26953125 24.75585938 C-16.8448053 24.81471195 -14.42318017 24.89686569 -12 25 C-12.02094727 24.42032471 -12.04189453 23.84064941 -12.06347656 23.2434082 C-12.14696807 20.59995076 -12.19876153 17.9567712 -12.25 15.3125 C-12.30027344 13.94448242 -12.30027344 13.94448242 -12.3515625 12.54882812 C-12.41447027 8.22391922 -12.41821932 5.70507489 -10.171875 1.91796875 C-6.68139402 -1.16445241 -4.31768299 -1.33642569 0 0 Z " fill="#080808" transform="translate(165,3)"/>
<path d="M0 0 C6.9184317 0.11860169 12.30588139 3.38527642 17.0625 8.25 C20.88525114 14.81765892 20.69269526 21.59486749 19.4375 28.875 C17.39466626 33.88922827 14.84676961 37.79353364 9.94921875 40.35546875 C2.70478475 43.0205196 -3.95451667 43.20580307 -11.12109375 40.1484375 C-16.56097817 37.45774198 -18.99221714 34.19925643 -21.20703125 28.67578125 C-23.17189303 22.15075896 -22.33814207 16.46672332 -19.3359375 10.3984375 C-16.26408277 5.67910761 -12.34742855 2.00310267 -6.9375 0.3125 C-4.62315728 0.26428453 -2.31019312 0.14667893 0 0 Z " fill="#030303" transform="translate(72.9375,44.75)"/>
</svg>
