<svg width="36" height="36" viewBox="0 0 36 36" fill="none" xmlns="http://www.w3.org/2000/svg">
<path d="M6.37535 1H30.2139C33.1827 1 35.5894 3.40665 35.5894 6.37541V30.214C35.5894 33.1828 33.1827 35.5894 30.2139 35.5894H6.37535C3.40659 35.5894 0.999939 33.1828 0.999939 30.214V6.37541C0.999939 3.40665 3.40659 1 6.37535 1Z" fill="white"/>
<path d="M6.3755 1.33594H30.2141C32.9973 1.33594 35.2535 3.59217 35.2535 6.37538V30.214C35.2535 32.9972 32.9973 35.2534 30.2141 35.2534H6.3755C3.59229 35.2534 1.33605 32.9972 1.33605 30.214V6.37538C1.33605 3.59217 3.59229 1.33594 6.3755 1.33594Z" stroke="#AEBAC8"/>
<path d="M16.6035 24.9924C16.8044 25.1932 17.0767 25.3059 17.3607 25.3059C17.6447 25.3058 17.917 25.1929 18.1177 24.9921C18.3185 24.7913 18.4312 24.5189 18.4312 24.2349C18.4311 23.951 18.3182 23.6787 18.1174 23.4779L14.0039 19.3651H25.9151C26.199 19.3651 26.4712 19.2523 26.672 19.0515C26.8727 18.8508 26.9855 18.5786 26.9855 18.2947C26.9855 18.0108 26.8727 17.7385 26.672 17.5378C26.4712 17.3371 26.199 17.2243 25.9151 17.2243H14.0032L18.1174 13.1101C18.2168 13.0107 18.2956 12.8927 18.3494 12.7628C18.4032 12.6329 18.4309 12.4937 18.4309 12.3532C18.4309 12.2126 18.4032 12.0734 18.3494 11.9435C18.2956 11.8136 18.2168 11.6956 18.1174 11.5962C18.018 11.4968 17.9 11.418 17.7701 11.3642C17.6402 11.3104 17.501 11.2827 17.3605 11.2827C17.2199 11.2827 17.0807 11.3104 16.9508 11.3642C16.821 11.418 16.7029 11.4968 16.6035 11.5962L10.6624 17.5374C10.563 17.6368 10.4841 17.7548 10.4303 17.8847C10.3765 18.0146 10.3488 18.1538 10.3488 18.2943C10.3488 18.4349 10.3765 18.5741 10.4303 18.704C10.4841 18.8339 10.563 18.9519 10.6624 19.0513L16.6035 24.9924Z" fill="#0F1E47"/>
</svg>
