<svg width="36" height="33" viewBox="0 0 36 33" fill="none" xmlns="http://www.w3.org/2000/svg">
<rect x="35.5" y="1" width="31" height="35" rx="4.5" transform="rotate(90 35.5 1)" fill="white"/>
<rect x="35.5" y="1" width="31" height="35" rx="4.5" transform="rotate(90 35.5 1)" stroke="#AEBAC8"/>
<path d="M29.5624 8.6255V8.62477C29.5624 8.00358 29.1483 7.5 28.6376 7.5L7.36272 7.5C6.85196 7.5 6.4379 8.00358 6.4379 8.62477V8.6255C6.4379 9.24669 6.85196 9.75027 7.36272 9.75027L28.6376 9.75027C29.1483 9.75027 29.5624 9.24669 29.5624 8.6255Z" fill="#0F1E47"/>
<path d="M24.9376 15.8757V15.875C24.9376 15.2538 24.5236 14.7502 24.0128 14.7502L7.36322 14.7502C6.85246 14.7502 6.4384 15.2538 6.4384 15.875V15.8757C6.4384 16.4969 6.85246 17.0005 7.36322 17.0005H24.0128C24.5236 17.0005 24.9376 16.4969 24.9376 15.8757Z" fill="#0F1E47"/>
<path d="M18.4618 23.126V23.1253C18.4618 22.5041 18.0477 22.0005 17.537 22.0005H7.36226C6.8515 22.0005 6.43745 22.5041 6.43745 23.1253V23.126C6.43745 23.7472 6.8515 24.2508 7.36226 24.2508H17.537C18.0477 24.2508 18.4618 23.7472 18.4618 23.126Z" fill="#0F1E47"/>
</svg>
