<svg width="25" height="26" viewBox="0 0 25 26" fill="none" xmlns="http://www.w3.org/2000/svg">
<path d="M18.6242 24.2931L13.0822 13.2781L12.4982 12.1211L11.9152 13.2781L6.37515 24.2931C6.33667 24.3697 6.31365 24.453 6.3074 24.5385C6.30115 24.624 6.3118 24.7098 6.33872 24.7912C6.36565 24.8725 6.40834 24.9477 6.46435 25.0126C6.52036 25.0774 6.58859 25.1306 6.66515 25.1691C6.74171 25.2076 6.8251 25.2306 6.91056 25.2368C6.99602 25.2431 7.08187 25.2324 7.16321 25.2055C7.24456 25.1786 7.3198 25.1359 7.38465 25.0799C7.44949 25.0239 7.50267 24.9557 7.54115 24.8791L12.4982 15.0231L17.4562 24.8791C17.534 25.0337 17.6701 25.1511 17.8344 25.2054C17.9988 25.2597 18.178 25.2464 18.3327 25.1686C18.4873 25.0907 18.6046 24.9547 18.6589 24.7903C18.7132 24.6259 18.7 24.4467 18.6222 24.2921L18.6242 24.2931Z" fill="#AA7E54"/>
<path d="M11.8477 0.238281H13.1477V4.69528H11.8477V0.238281Z" fill="#E2A76F"/>
<path d="M1.11426 1.86719H23.8893V17.4102H1.11426V1.86719Z" fill="#EAEAF0"/>
<path d="M22.5812 11.7066C22.4804 11.7066 22.3837 11.6666 22.3125 11.5953C22.2412 11.524 22.2012 11.4274 22.2012 11.3266V8.62659C22.2012 8.52568 22.2413 8.4289 22.3126 8.35754C22.384 8.28618 22.4808 8.24609 22.5817 8.24609C22.6826 8.24609 22.7794 8.28618 22.8507 8.35754C22.9221 8.4289 22.9622 8.52568 22.9622 8.62659V11.3266C22.9622 11.3766 22.9523 11.4261 22.9332 11.4722C22.914 11.5184 22.8859 11.5604 22.8505 11.5956C22.8151 11.6309 22.7731 11.6589 22.7269 11.678C22.6807 11.697 22.6312 11.7067 22.5812 11.7066Z" fill="#B4B4B8"/>
<path d="M0 16.4336H25V18.3906H0V16.4336Z" fill="#E2A76F"/>
</svg>
