<svg width="32" height="32" viewBox="0 0 32 32" fill="none" xmlns="http://www.w3.org/2000/svg">
<path fill-rule="evenodd" clip-rule="evenodd" d="M9.6594 23.7682C16.0631 17.3645 21.2612 12.1661 27.6649 5.76271C27.7732 5.65437 27.9506 5.65487 28.0584 5.76271L28.5561 6.26009L28.5608 6.26513L29.6314 7.33574L29.6365 7.34078L30.1341 7.83841C30.2419 7.94625 30.2425 8.12339 30.1341 8.23173C23.7304 14.6354 18.5323 19.8338 12.1286 26.2375C12.0203 26.3456 11.8437 26.3456 11.7353 26.2375L11.2377 25.7399L11.2327 25.7348L10.1621 24.6642L10.157 24.6592L9.65938 24.1616C9.55104 24.0532 9.55105 23.8765 9.6594 23.7682Z" fill="#00BA00"/>
<path fill-rule="evenodd" clip-rule="evenodd" d="M11.7344 26.2369C5.3307 19.8332 8.2719 22.7744 1.86818 16.3706C1.75984 16.2623 1.76034 16.0849 1.86818 15.9771L2.3658 15.4797L2.37085 15.4747L3.44145 14.404L3.44623 14.399L3.94386 13.9014C4.0517 13.7935 4.22908 13.793 4.33743 13.9014C10.7411 20.3051 7.79995 17.3639 14.2034 23.7676C14.3117 23.876 14.3117 24.0526 14.2034 24.1609L13.7058 24.6586L13.701 24.6636L12.6304 25.7342L12.6253 25.7393L12.1277 26.2369C12.0194 26.345 11.8428 26.345 11.7344 26.2369Z" fill="#00BA00"/>
</svg>
