<svg width="14" height="11" viewBox="0 0 14 11" fill="none" xmlns="http://www.w3.org/2000/svg">
<path d="M12.9892 4.13015L9.38918 0.530151C9.22187 0.362847 9.02327 0.230136 8.80467 0.139591C8.58608 0.0490469 8.35179 0.00244141 8.11519 0.00244141C7.87858 0.0024414 7.6443 0.0490469 7.4257 0.139591C7.20711 0.230136 7.00849 0.362847 6.84119 0.530151C6.67388 0.697455 6.54117 0.896073 6.45062 1.11467C6.36008 1.33326 6.31348 1.56755 6.31348 1.80415C6.31348 2.04075 6.36008 2.27504 6.45062 2.49363C6.54117 2.71223 6.67388 2.91085 6.84119 3.07815L9.17119 5.40815L6.84119 7.73815C6.67388 7.90546 6.54117 8.10407 6.45062 8.32267C6.36008 8.54126 6.31348 8.77555 6.31348 9.01215C6.31348 9.24875 6.36008 9.48304 6.45062 9.70163C6.54117 9.92023 6.67388 10.1188 6.84119 10.2862C7.00849 10.4535 7.20711 10.5862 7.4257 10.6767C7.6443 10.7673 7.87858 10.8139 8.11519 10.8139C8.35179 10.8139 8.58608 10.7673 8.80467 10.6767C9.02327 10.5862 9.22187 10.4535 9.38918 10.2862L12.9892 6.68615C13.1567 6.51896 13.2896 6.32038 13.3802 6.10177C13.4709 5.88316 13.5176 5.64882 13.5176 5.41215C13.5176 5.17548 13.4709 4.94114 13.3802 4.72253C13.2896 4.50392 13.1567 4.30534 12.9892 4.13815V4.13015ZM12.3522 6.04115L8.75218 9.64115C8.58063 9.80509 8.35248 9.89658 8.11519 9.89658C7.8779 9.89658 7.64973 9.80509 7.47818 9.64115C7.39443 9.55756 7.32797 9.45827 7.28264 9.34896C7.2373 9.23966 7.21397 9.12248 7.21397 9.00415C7.21397 8.88582 7.2373 8.76864 7.28264 8.65934C7.32797 8.55004 7.39443 8.45074 7.47818 8.36715L10.4452 5.40015L7.47818 2.43315C7.3091 2.26421 7.21407 2.03502 7.21397 1.79601C7.21388 1.55699 7.30873 1.32772 7.47768 1.15865C7.64662 0.989574 7.87581 0.894537 8.11482 0.894444C8.35384 0.89435 8.58311 0.989207 8.75218 1.15815L12.3522 4.75815C12.4361 4.84176 12.5027 4.94112 12.5481 5.05051C12.5935 5.15991 12.6169 5.2772 12.6169 5.39565C12.6169 5.51411 12.5935 5.63139 12.5481 5.74079C12.5027 5.85018 12.4361 5.94954 12.3522 6.03315V6.04115Z" fill="#0088DC"/>
<path d="M6.68106 4.13021L3.08106 0.530212C2.91409 0.36258 2.71573 0.229477 2.49731 0.138504C2.2789 0.0475304 2.0447 0.000467762 1.8081 3.46911e-06C1.57149 -0.000460824 1.33712 0.0456837 1.11834 0.135799C0.899573 0.225914 0.700694 0.358235 0.533062 0.525211C0.365429 0.692187 0.232327 0.890547 0.141354 1.10896C0.0503802 1.32738 0.00331795 1.56157 0.00285365 1.79818C0.00238936 2.03478 0.0485322 2.26916 0.138648 2.48793C0.228763 2.7067 0.361086 2.90558 0.528062 3.07321L2.85806 5.40321L0.528062 7.73321C0.360692 7.90052 0.227914 8.09915 0.137309 8.31777C0.0467042 8.53639 4.64701e-05 8.77071 3.46948e-08 9.00736C-4.64007e-05 9.24401 0.0465193 9.47835 0.137038 9.69701C0.227558 9.91566 0.360258 10.1143 0.527562 10.2817C0.694866 10.4491 0.893498 10.5819 1.11212 10.6725C1.33073 10.7631 1.56506 10.8097 1.80171 10.8098C2.03836 10.8098 2.2727 10.7633 2.49135 10.6727C2.71001 10.5822 2.90869 10.4495 3.07606 10.2822L6.67606 6.68221C6.84357 6.51502 6.97646 6.31644 7.06713 6.09783C7.15781 5.87922 7.20448 5.64488 7.20448 5.40821C7.20448 5.17154 7.15781 4.9372 7.06713 4.71859C6.97646 4.49998 6.84357 4.3014 6.67606 4.13421L6.68106 4.13021ZM6.04406 6.04121L2.44406 9.64121C2.27251 9.80515 2.04435 9.89664 1.80706 9.89664C1.56977 9.89664 1.34161 9.80515 1.17006 9.64121C1.08631 9.55762 1.01986 9.45833 0.974525 9.34902C0.929189 9.23972 0.905853 9.12255 0.905853 9.00421C0.905853 8.88588 0.929189 8.76871 0.974525 8.6594C1.01986 8.5501 1.08631 8.45081 1.17006 8.36721L4.13706 5.40021L1.16506 2.43621C1.08134 2.35256 1.01492 2.25324 0.96959 2.14392C0.924257 2.0346 0.900901 1.91741 0.900854 1.79906C0.900808 1.68072 0.924072 1.56352 0.969319 1.45416C1.01457 1.3448 1.08091 1.24543 1.16456 1.16171C1.24821 1.07799 1.34754 1.01157 1.45686 0.96624C1.56618 0.920907 1.68336 0.897549 1.80171 0.897503C1.92006 0.897456 2.03726 0.920722 2.14661 0.965969C2.25597 1.01122 2.35534 1.07756 2.43906 1.16121L6.03906 4.76121C6.12297 4.84482 6.18954 4.94418 6.23496 5.05357C6.28039 5.16297 6.30377 5.28026 6.30377 5.39871C6.30377 5.51716 6.28039 5.63445 6.23496 5.74385C6.18954 5.85325 6.12297 5.9526 6.03906 6.03621L6.04406 6.04121Z" fill="#0088DC"/>
</svg>
