<svg width="60" height="60" viewBox="0 0 60 60" fill="none" xmlns="http://www.w3.org/2000/svg">
<circle cx="30" cy="30" r="30" fill="#F78D11"/>
<ellipse cx="21.1327" cy="19.9803" rx="2.67961" ry="3.78641" fill="black"/>
<ellipse cx="38.8414" cy="19.9803" rx="2.67961" ry="3.78641" fill="black"/>
<path d="M41.6933 43.8938C41.1966 43.8938 40.6979 43.7194 40.2963 43.3634C37.9795 41.3121 34.1521 40.088 30.0574 40.088C25.9635 40.088 22.1366 41.3121 19.8198 43.3626C18.9456 44.1364 17.6111 44.053 16.8396 43.1772C16.0676 42.3014 16.1504 40.9638 17.0246 40.1895C20.1365 37.4347 24.8871 35.855 30.0574 35.855C35.2286 35.855 39.9795 37.4351 43.0919 40.1912C43.9661 40.965 44.0489 42.3022 43.2769 43.1784C42.8597 43.6517 42.2777 43.8938 41.6933 43.8938Z" fill="black"/>
</svg>
