<svg width="60" height="60" viewBox="0 0 60 60" fill="none" xmlns="http://www.w3.org/2000/svg">
<circle cx="30" cy="30" r="30" fill="#F36218"/>
<ellipse cx="21.1327" cy="18.6988" rx="2.67961" ry="3.78641" fill="black"/>
<ellipse cx="38.8414" cy="18.6985" rx="2.67961" ry="3.78641" fill="black"/>
<path d="M39.7979 45.0877C38.9903 45.0877 38.2166 44.6297 37.8529 43.85C36.4457 40.8349 33.386 38.8864 30.0579 38.8864C26.7298 38.8864 23.6701 40.8345 22.2634 43.8492C21.7628 44.9215 20.4878 45.385 19.4139 44.8859C18.3408 44.386 17.8759 43.1114 18.3764 42.0391C20.4848 37.5211 25.07 34.6023 30.0583 34.6023C35.0467 34.6023 39.6323 37.5215 41.7407 42.04C42.2412 43.1123 41.7763 44.3864 40.7032 44.8868C40.409 45.0235 40.1011 45.0877 39.7979 45.0877Z" fill="black"/>
</svg>
