<svg clip-rule="evenodd" fill-rule="evenodd" height="512" image-rendering="optimizeQuality" shape-rendering="geometricPrecision" text-rendering="geometricPrecision" viewBox="0 0 43.3492 43.3492" width="512" xmlns="http://www.w3.org/2000/svg"><g id="Layer_x0020_1"><g id="_282968384"><path id="_282968168" d="m43.2218 6.3917v33.1076c0 2.117-1.7329 3.8499-3.85 3.8499h-35.3944c-2.1175 0-3.85-1.7324-3.85-3.8499v-35.6494c0-2.1175 1.7325-3.85 3.85-3.85h32.8446zm-32.2001 18.9621h21.3058c1.0832 0 1.9694.8862 1.9694 1.9694v12.5084c0 1.0832-.8862 1.9694-1.9694 1.9694h-21.3058c-1.0832 0-1.9694-.8862-1.9694-1.9694v-12.5084c0-1.0832.8862-1.9694 1.9694-1.9694zm.5805-23.8057h20.1448v14.5348h-20.1448z"/><rect id="_282968672" height="11.092" rx=".555" width="5.227" x="24.352" y="3.078"/></g></g></svg>