<svg width="30" height="24" viewBox="0 0 30 24" fill="none" xmlns="http://www.w3.org/2000/svg">
<path d="M11.7048 19.3013C11.5634 19.3013 11.4278 19.2437 11.3279 19.1413C11.2279 19.0388 11.1717 18.8998 11.1717 18.7548C11.1717 18.6099 11.2279 18.4709 11.3279 18.3684C11.4278 18.2659 11.5634 18.2083 11.7048 18.2083H12.1754C12.4085 18.2083 12.6321 18.1134 12.7969 17.9444C12.9617 17.7755 13.0543 17.5463 13.0543 17.3073C13.0543 17.0683 12.9617 16.8391 12.7969 16.6702C12.6321 16.5012 12.4085 16.4062 12.1754 16.4062H11.7048C11.0972 16.4062 10.5145 16.6537 10.0848 17.0941C9.65518 17.5346 9.41382 18.132 9.41382 18.7548C9.41382 19.3777 9.65518 19.9751 10.0848 20.4155C10.5145 20.856 11.0972 21.1034 11.7048 21.1034C11.8462 21.1034 11.9818 21.161 12.0817 21.2635C12.1817 21.366 12.2379 21.505 12.2379 21.6499C12.2379 21.7948 12.1817 21.9338 12.0817 22.0363C11.9818 22.1388 11.8462 22.1964 11.7048 22.1964H11.2366C11.0035 22.1964 10.78 22.2913 10.6151 22.4603C10.4503 22.6293 10.3577 22.8585 10.3577 23.0974C10.3577 23.3364 10.4503 23.5656 10.6151 23.7346C10.78 23.9036 11.0035 23.9985 11.2366 23.9985H11.7072C12.3148 23.9985 12.8975 23.751 13.3272 23.3106C13.7568 22.8702 13.9982 22.2728 13.9982 21.6499C13.9982 21.027 13.7568 20.4297 13.3272 19.9892C12.8975 19.5488 12.3148 19.3013 11.7072 19.3013H11.7048Z" fill="#05303D"/>
<path d="M4.096 16.503C3.8875 16.3962 3.64618 16.3787 3.42507 16.4542C3.20397 16.5298 3.02117 16.6922 2.91686 16.9059L2.29062 18.1892L1.66499 16.9041C1.56074 16.6903 1.37795 16.5278 1.15681 16.4522C0.935681 16.3767 0.694323 16.3943 0.485837 16.5011C0.27735 16.608 0.118813 16.7954 0.0451023 17.0221C-0.0286088 17.2488 -0.011456 17.4962 0.0927872 17.7099L1.41497 20.4146V23.0953C1.41497 23.3343 1.50758 23.5634 1.67241 23.7324C1.83725 23.9014 2.06081 23.9963 2.29393 23.9963C2.52704 23.9963 2.7506 23.9014 2.91544 23.7324C3.08027 23.5634 3.17288 23.3343 3.17288 23.0953V20.4152L4.49506 17.7105C4.54623 17.6044 4.5765 17.489 4.58413 17.3708C4.59177 17.2527 4.57662 17.1341 4.53957 17.022C4.50251 16.9099 4.44426 16.8063 4.36815 16.7173C4.29205 16.6282 4.19957 16.5554 4.096 16.503Z" fill="#08475E"/>
<path d="M8.00197 18.2083C8.23508 18.2083 8.45864 18.1134 8.62348 17.9444C8.78831 17.7755 8.88092 17.5463 8.88092 17.3073C8.88092 17.0683 8.78831 16.8391 8.62348 16.6702C8.45864 16.5012 8.23508 16.4062 8.00197 16.4062H6.12206C5.88903 16.4063 5.66554 16.5012 5.50076 16.6701C5.33598 16.839 5.24341 17.0681 5.24341 17.307V23.0984C5.24341 23.3373 5.33598 23.5664 5.50076 23.7353C5.66554 23.9042 5.88903 23.9991 6.12206 23.9991H8.00497C8.23808 23.9991 8.46165 23.9042 8.62649 23.7352C8.79132 23.5662 8.88392 23.337 8.88392 23.0981C8.88392 22.8591 8.79132 22.6299 8.62649 22.4609C8.46165 22.2919 8.23808 22.197 8.00497 22.197H7.00131V21.104H7.37933C7.61245 21.104 7.83602 21.0091 8.00085 20.8401C8.16569 20.6712 8.25829 20.442 8.25829 20.203C8.25829 19.964 8.16569 19.7348 8.00085 19.5658C7.83602 19.3969 7.61245 19.3019 7.37933 19.3019H7.00131V18.2083H8.00197Z" fill="#08475E"/>
<path d="M25.8261 16.4063C25.4629 16.4058 25.1032 16.4787 24.7676 16.621C24.4319 16.7632 24.127 16.972 23.8702 17.2353C23.6134 17.4985 23.4098 17.8111 23.271 18.1552C23.1322 18.4993 23.0611 18.868 23.0615 19.2403V21.1706C23.0947 21.8986 23.4001 22.5855 23.9144 23.0886C24.4286 23.5918 25.1122 23.8726 25.8231 23.8726C26.534 23.8726 27.2176 23.5918 27.7318 23.0886C28.2461 22.5855 28.5515 21.8986 28.5847 21.1706V19.2385C28.5842 18.4882 28.2935 17.7688 27.7764 17.2378C27.2593 16.7069 26.558 16.4079 25.8261 16.4063ZM26.8297 21.1687C26.8297 21.4417 26.724 21.7035 26.5357 21.8965C26.3474 22.0895 26.0921 22.1979 25.8258 22.1979C25.5595 22.1979 25.3042 22.0895 25.1159 21.8965C24.9276 21.7035 24.8218 21.4417 24.8218 21.1687V19.2372C24.8218 18.9643 24.9276 18.7025 25.1159 18.5095C25.3042 18.3165 25.5595 18.208 25.8258 18.208C26.0921 18.208 26.3474 18.3165 26.5357 18.5095C26.724 18.7025 26.8297 18.9643 26.8297 19.2372V21.1687Z" fill="#05303D"/>
<path d="M21.1222 16.4062C20.8891 16.4062 20.6657 16.5012 20.5009 16.6701C20.3361 16.839 20.2435 17.0681 20.2435 17.307V19.2785L19.0788 16.9047C18.9903 16.7231 18.8446 16.5774 18.6653 16.4913C18.486 16.4052 18.2835 16.3838 18.0908 16.4304C17.8981 16.4771 17.7264 16.5891 17.6035 16.7483C17.4807 16.9075 17.4139 17.1046 17.4141 17.3076V23.099C17.4141 23.338 17.5067 23.5671 17.6715 23.7361C17.8363 23.9051 18.0599 24 18.293 24C18.5261 24 18.7497 23.9051 18.9145 23.7361C19.0794 23.5671 19.172 23.338 19.172 23.099V21.1238L20.3313 23.5007C20.4197 23.6823 20.5654 23.828 20.7448 23.914C20.9241 24.0001 21.1266 24.0216 21.3193 23.9749C21.512 23.9283 21.6837 23.8163 21.8065 23.6571C21.9294 23.4978 21.9962 23.3008 21.996 23.0978V17.3064C21.9959 17.0684 21.9039 16.8403 21.7402 16.6716C21.5765 16.503 21.3543 16.4076 21.1222 16.4062Z" fill="#08475E"/>
<path d="M29.1212 14.3478H16.885C16.7696 14.3478 16.6554 14.3245 16.5488 14.2792C16.4422 14.234 16.3453 14.1676 16.2637 14.084C16.1821 14.0003 16.1174 13.901 16.0732 13.7918C16.0291 13.6825 16.0063 13.5654 16.0063 13.4471V0.900742C16.0063 0.66185 16.0989 0.432742 16.2637 0.26382C16.4285 0.0948979 16.652 0 16.885 0H29.1212C29.3543 0 29.5778 0.0948979 29.7425 0.26382C29.9073 0.432742 29.9999 0.66185 29.9999 0.900742V13.4471C29.9999 13.5654 29.9771 13.6825 29.933 13.7918C29.8888 13.901 29.8241 14.0003 29.7425 14.084C29.6609 14.1676 29.5641 14.234 29.4575 14.2792C29.3509 14.3245 29.2366 14.3478 29.1212 14.3478Z" fill="#FF3838"/>
<path d="M29.121 0H23.0017V14.3478H29.121C29.2364 14.3478 29.3507 14.3245 29.4573 14.2792C29.5639 14.234 29.6607 14.1676 29.7423 14.084C29.8239 14.0003 29.8886 13.901 29.9328 13.7918C29.977 13.6825 29.9997 13.5654 29.9997 13.4471V0.900742C29.9997 0.66185 29.9071 0.432742 29.7423 0.26382C29.5775 0.0948979 29.3541 0 29.121 0Z" fill="#E20059"/>
<path d="M13.1173 14.3478H0.878652C0.763266 14.3478 0.64901 14.3245 0.542407 14.2792C0.435804 14.234 0.338942 14.1676 0.257351 14.084C0.175761 14.0003 0.11104 13.901 0.0668834 13.7918C0.022727 13.6825 0 13.5654 0 13.4471L0 0.900742C0 0.66185 0.092572 0.432742 0.257351 0.26382C0.422131 0.0948979 0.645619 0 0.878652 0H13.1173C13.3503 0 13.5738 0.0948979 13.7386 0.26382C13.9034 0.432742 13.9959 0.66185 13.9959 0.900742V13.4471C13.9959 13.5654 13.9732 13.6825 13.9291 13.7918C13.8849 13.901 13.8202 14.0003 13.7386 14.084C13.657 14.1676 13.5601 14.234 13.4535 14.2792C13.3469 14.3245 13.2327 14.3478 13.1173 14.3478Z" fill="#1FD879"/>
<path d="M13.1174 0H6.99805V14.3478H13.1174C13.2328 14.3478 13.347 14.3245 13.4536 14.2792C13.5602 14.234 13.6571 14.1676 13.7387 14.084C13.8203 14.0003 13.885 13.901 13.9291 13.7918C13.9733 13.6825 13.996 13.5654 13.996 13.4471V0.900742C13.996 0.66185 13.9034 0.432742 13.7387 0.26382C13.5739 0.0948979 13.3504 0 13.1174 0Z" fill="#00B9A0"/>
<path d="M6.05691 10.0041C5.94151 10.0041 5.82724 9.98085 5.72061 9.93561C5.61398 9.89037 5.5171 9.82403 5.43548 9.7404L3.55257 7.81015C3.47096 7.72649 3.40623 7.62717 3.36206 7.51786C3.3179 7.40856 3.29517 7.2914 3.29517 7.17309C3.29517 6.93415 3.38776 6.705 3.55257 6.53604C3.71738 6.36709 3.94092 6.27217 4.174 6.27217C4.40708 6.27217 4.63061 6.36709 4.79542 6.53604L6.05751 7.82986L9.20191 4.60641C9.36672 4.43745 9.59026 4.34253 9.82334 4.34253C10.0564 4.34253 10.2799 4.43745 10.4448 4.60641C10.6096 4.77536 10.7022 5.00452 10.7022 5.24346C10.7022 5.4824 10.6096 5.71156 10.4448 5.88051L6.67894 9.74101C6.5972 9.82461 6.50019 9.89087 6.39346 9.93601C6.28673 9.98115 6.17237 10.0043 6.05691 10.0041Z" fill="#F0F5FF"/>
<path d="M24.2447 7.17394L25.9768 5.39833C26.1416 5.22937 26.2342 5.00022 26.2342 4.76128C26.2342 4.52234 26.1416 4.29318 25.9768 4.12422C25.812 3.95527 25.5884 3.86035 25.3554 3.86035C25.1223 3.86035 24.8987 3.95527 24.7339 4.12422L23.0019 5.89984L21.2698 4.12422C21.105 3.95527 20.8815 3.86035 20.6484 3.86035C20.4153 3.86035 20.1918 3.95527 20.0269 4.12422C19.8621 4.29318 19.7695 4.52234 19.7695 4.76128C19.7695 5.00022 19.8621 5.22937 20.0269 5.39833L21.759 7.17394L20.0269 8.94954C19.8621 9.1185 19.7695 9.34765 19.7695 9.58659C19.7695 9.82553 19.8621 10.0547 20.0269 10.2237C20.1918 10.3926 20.4153 10.4875 20.6484 10.4875C20.8815 10.4875 21.105 10.3926 21.2698 10.2237L23.0019 8.44804L24.7339 10.2237C24.8987 10.3926 25.1223 10.4875 25.3554 10.4875C25.5884 10.4875 25.812 10.3926 25.9768 10.2237C26.1416 10.0547 26.2342 9.82553 26.2342 9.58659C26.2342 9.34765 26.1416 9.1185 25.9768 8.94954L24.2447 7.17394Z" fill="#F0F5FF"/>
<path d="M23.0017 8.44804L24.7338 10.2237C24.8986 10.3926 25.1221 10.4875 25.3552 10.4875C25.5883 10.4875 25.8118 10.3926 25.9766 10.2237C26.1414 10.0547 26.234 9.82553 26.234 9.58659C26.234 9.34765 26.1414 9.1185 25.9766 8.94954L24.2446 7.17394L25.9766 5.39833C26.1414 5.22937 26.234 5.00022 26.234 4.76128C26.234 4.52234 26.1414 4.29318 25.9766 4.12422C25.8118 3.95527 25.5883 3.86035 25.3552 3.86035C25.1221 3.86035 24.8986 3.95527 24.7338 4.12422L23.0017 5.89984V8.44804Z" fill="#D8F1FB"/>
<path d="M9.20215 4.60641L6.99951 6.86442V9.41262L10.445 5.8805C10.6098 5.71155 10.7024 5.48239 10.7024 5.24345C10.7024 5.00451 10.6098 4.77536 10.445 4.60641C10.2802 4.43745 10.0567 4.34253 9.82358 4.34253C9.5905 4.34253 9.36697 4.43745 9.20215 4.60641Z" fill="#D8F1FB"/>
<path d="M8.00024 18.2083C8.23335 18.2083 8.45692 18.1134 8.62175 17.9444C8.78659 17.7755 8.87919 17.5463 8.87919 17.3073C8.87919 17.0683 8.78659 16.8391 8.62175 16.6702C8.45692 16.5012 8.23335 16.4062 8.00024 16.4062H6.99658V23.9985H8.00024C8.23335 23.9985 8.45692 23.9036 8.62175 23.7346C8.78659 23.5656 8.87919 23.3364 8.87919 23.0974C8.87919 22.8585 8.78659 22.6293 8.62175 22.4603C8.45692 22.2913 8.23335 22.1964 8.00024 22.1964H6.99658V21.1034H7.37461C7.60772 21.1034 7.83129 21.0085 7.99612 20.8395C8.16096 20.6705 8.25356 20.4413 8.25356 20.2024C8.25356 19.9634 8.16096 19.7342 7.99612 19.5652C7.83129 19.3962 7.60772 19.3013 7.37461 19.3013H6.99658V18.2083H8.00024Z" fill="#05303D"/>
</svg>
