<svg width="30" height="26" viewBox="0 0 30 26" fill="none" xmlns="http://www.w3.org/2000/svg">
<path d="M22.3466 24.9985L15.6985 13.5513L14.9993 12.3508L14.3001 13.5513L7.65042 24.9985C7.60042 25.0784 7.56944 25.1661 7.55932 25.2565C7.5492 25.3469 7.56015 25.4381 7.59152 25.5248C7.62288 25.6115 7.67403 25.6918 7.74192 25.761C7.80981 25.8302 7.89306 25.887 7.98674 25.9278C8.08042 25.9686 8.18261 25.9927 8.28725 25.9987C8.3919 26.0047 8.49687 25.9924 8.59593 25.9626C8.69499 25.9328 8.78613 25.8861 8.86393 25.8252C8.94174 25.7643 9.00463 25.6904 9.04888 25.6081L14.9993 15.3654L20.9497 25.6081C20.9939 25.6904 21.0568 25.7643 21.1346 25.8252C21.2125 25.8861 21.3036 25.9328 21.4027 25.9626C21.5017 25.9924 21.6067 26.0047 21.7113 25.9987C21.816 25.9927 21.9182 25.9686 22.0118 25.9278C22.1055 25.887 22.1888 25.8302 22.2567 25.761C22.3246 25.6918 22.3757 25.6115 22.4071 25.5248C22.4384 25.4381 22.4494 25.3469 22.4393 25.2565C22.4291 25.1661 22.3982 25.0784 22.3482 24.9985H22.3466Z" fill="#AA7E54"/>
<path d="M14.2168 0H15.7824V4.63118H14.2168V0Z" fill="#E2A76F"/>
<path d="M1.33691 1.69482H28.6624V17.8486H1.33691V1.69482Z" fill="#EAEAF0" stroke="#707070"/>
<path d="M27.0983 11.9176C26.9771 11.9176 26.861 11.876 26.7754 11.8018C26.6897 11.7276 26.6416 11.627 26.6416 11.5221V8.71702C26.6416 8.61213 26.6897 8.51154 26.7754 8.43737C26.861 8.3632 26.9771 8.32153 27.0983 8.32153C27.2194 8.32153 27.3355 8.3632 27.4212 8.43737C27.5068 8.51154 27.5549 8.61213 27.5549 8.71702V11.5221C27.5549 11.627 27.5068 11.7276 27.4212 11.8018C27.3355 11.876 27.2194 11.9176 27.0983 11.9176Z" fill="#B4B4B8"/>
<path d="M0 16.8313H30V18.8648H0V16.8313Z" fill="#E2A76F"/>
</svg>
