<svg width="30" height="24" viewBox="0 0 30 24" fill="none" xmlns="http://www.w3.org/2000/svg">
<path d="M25.8483 3.44971H22.4141V8.24989H25.8483V3.44971Z" fill="#F05540"/>
<path d="M27.1595 0.999756H21.103V3.59995H27.1595V0.999756Z" fill="#F3705A"/>
<path d="M2.62158 12.9495V23.9995H27.0965V12.9495L14.8587 3.14966C10.1141 7.00222 7.43227 9.14988 2.62158 12.9495Z" fill="#FFD15C"/>
<path d="M27.159 12.9496L14.9212 3.14966C12.4864 5.04719 10.6131 6.54969 8.73977 8.0499L2.62158 12.9496V15.1996L14.8594 5.39967L27.0965 15.1996V15.4997V12.9496H27.159Z" fill="#F7B64C"/>
<path d="M12.6742 23.9999H5.30664V18.1998C5.30854 17.4179 5.69722 16.6685 6.38758 16.1156C7.07795 15.5628 8.01373 15.2515 8.99005 15.25C9.96636 15.2515 10.9022 15.5628 11.5925 16.1156C12.2829 16.6685 12.6716 17.4179 12.6735 18.1998L12.6742 23.9999Z" fill="#415A6B"/>
<path d="M24.4748 15.25H14.8599V22H24.4748V15.25Z" fill="#344A5E"/>
<path d="M19.1682 16.0498H15.8589V21.2002H19.1682V16.0498Z" fill="#8AD7F8"/>
<path d="M23.4758 16.0498H20.1665V21.2002H23.4758V16.0498Z" fill="#8AD7F8"/>
<path d="M29.4074 10.8996L16.3582 0.449986C15.9794 0.161121 15.4764 0 14.9534 0C14.4304 0 13.9274 0.161121 13.5486 0.449986L0.561897 10.8996C0.201191 11.203 0 11.6058 0 12.0246C0 12.4435 0.201191 12.8463 0.561897 13.1497C0.940657 13.4385 1.44365 13.5996 1.96669 13.5996C2.48973 13.5996 2.99272 13.4385 3.37148 13.1497L14.9846 3.85232L26.5971 13.1502C26.781 13.2999 27.0001 13.419 27.2418 13.5006C27.4835 13.5821 27.7429 13.6245 28.0052 13.6254C28.2674 13.6262 28.5273 13.5855 28.7698 13.5055C29.0123 13.4255 29.2326 13.3079 29.4181 13.1594C29.6035 13.0109 29.7504 12.8344 29.8503 12.6402C29.9502 12.446 30.001 12.2379 30 12.0279C29.9989 11.8179 29.9459 11.6101 29.8441 11.4165C29.7423 11.223 29.5936 11.0475 29.4066 10.9002L29.4074 10.8996Z" fill="#F3705A"/>
</svg>
