<svg width="35" height="35" viewBox="0 0 35 35" fill="none" xmlns="http://www.w3.org/2000/svg">
<g clip-path="url(#clip0_1033_2279)">
<path d="M29.6247 0.205078H5.78605C2.8173 0.205078 0.410645 2.61173 0.410645 5.58049V29.4191C0.410645 32.3879 2.8173 34.7945 5.78605 34.7945H29.6247C32.5934 34.7945 35.0001 32.3879 35.0001 29.4191V5.58049C35.0001 2.61173 32.5934 0.205078 29.6247 0.205078Z" fill="white"/>
<path d="M29.6246 0.541016H5.78603C3.00282 0.541016 0.746582 2.79726 0.746582 5.58047V29.4191C0.746582 32.2023 3.00282 34.4585 5.78603 34.4585H29.6246C32.4078 34.4585 34.664 32.2023 34.664 29.4191V5.58047C34.664 2.79726 32.4078 0.541016 29.6246 0.541016Z" stroke="#AEBAC8"/>
<path d="M19.3966 24.1981C19.1957 24.3988 18.9234 24.5115 18.6394 24.5115C18.3554 24.5114 18.0831 24.3986 17.8824 24.1977C17.6816 23.9969 17.5689 23.7245 17.5689 23.4406C17.569 23.1566 17.6819 22.8843 17.8827 22.6835L21.9962 18.5707H10.085C9.80114 18.5707 9.52889 18.4579 9.32815 18.2572C9.12742 18.0564 9.01465 17.7842 9.01465 17.5003C9.01465 17.2164 9.12742 16.9442 9.32815 16.7434C9.52889 16.5427 9.80114 16.4299 10.085 16.4299H21.9969L17.8827 12.3157C17.7833 12.2163 17.7045 12.0983 17.6507 11.9684C17.5969 11.8386 17.5692 11.6994 17.5692 11.5588C17.5692 11.4182 17.5969 11.279 17.6507 11.1491C17.7045 11.0193 17.7833 10.9013 17.8827 10.8019C17.9821 10.7025 18.1001 10.6236 18.23 10.5698C18.3599 10.516 18.4991 10.4883 18.6396 10.4883C18.7802 10.4883 18.9194 10.516 19.0493 10.5698C19.1791 10.6236 19.2972 10.7025 19.3966 10.8019L25.3377 16.743C25.4371 16.8424 25.516 16.9604 25.5698 17.0903C25.6236 17.2202 25.6513 17.3594 25.6513 17.5C25.6513 17.6405 25.6236 17.7797 25.5698 17.9096C25.516 18.0395 25.4371 18.1575 25.3377 18.2569L19.3966 24.1981Z" fill="#0F1E47"/>
</g>
<defs>
<clipPath id="clip0_1033_2279">
<rect width="35" height="35" fill="white"/>
</clipPath>
</defs>
</svg>
