<svg width="20" height="30" viewBox="0 0 20 30" fill="none" xmlns="http://www.w3.org/2000/svg">
<path d="M11.9111 21.1811H6.4C6.13333 20.4724 6 19.8819 6 19.4094C6 18.1496 6.42963 17.1129 7.28889 16.2992C8.20741 15.4331 9.12593 14.685 10.0444 14.0551C11.0222 13.3727 11.9407 12.5984 12.8 11.7323C13.6296 10.8924 14.0444 9.72441 14.0444 8.22834C14.0444 7.09974 13.6148 6.1811 12.7556 5.47244C11.9259 4.73753 10.8296 4.37008 9.46667 4.37008C8.48889 4.37008 7.62963 4.58005 6.88889 5C6.17778 5.3937 5.65926 5.87926 5.33333 6.45669C5.03704 7.00787 4.81482 7.49344 4.66667 7.91338C4.54815 8.30709 4.48889 8.60892 4.48889 8.8189H0V5.98425C0.0592593 5.66929 0.251852 5.23622 0.577778 4.68504C0.933333 4.10761 1.45185 3.45144 2.13333 2.71654C2.81481 1.95538 3.82222 1.31233 5.15556 0.787401C6.51852 0.262467 8.05926 0 9.77778 0C12.8 0 15.2593 0.734908 17.1556 2.20472C19.0519 3.64829 20 5.5643 20 7.95276C20 9.84252 19.5556 11.3386 18.6667 12.4409C17.837 13.4908 16.8741 14.4226 15.7778 15.2362C14.8889 15.8661 13.9259 16.5354 12.8889 17.2441C12 17.874 11.5556 18.6614 11.5556 19.6063C11.5556 20.0262 11.6741 20.5512 11.9111 21.1811ZM12.4444 30H6.31111V24.6063H12.4444V30Z" fill="#1435F8"/>
</svg>
