<svg width="25" height="26" viewBox="0 0 25 26" fill="none" xmlns="http://www.w3.org/2000/svg">
<path d="M18.6242 24.5548L13.0822 13.5398L12.4982 12.3828L11.9152 13.5398L6.37515 24.5548C6.33667 24.6314 6.31365 24.7148 6.3074 24.8002C6.30115 24.8857 6.3118 24.9715 6.33872 25.0529C6.36565 25.1342 6.40834 25.2095 6.46435 25.2743C6.52036 25.3392 6.58859 25.3923 6.66515 25.4308C6.74171 25.4693 6.8251 25.4923 6.91056 25.4986C6.99602 25.5048 7.08187 25.4942 7.16321 25.4672C7.24456 25.4403 7.3198 25.3976 7.38465 25.3416C7.44949 25.2856 7.50267 25.2174 7.54115 25.1408L12.4982 15.2848L17.4562 25.1408C17.534 25.2954 17.6701 25.4128 17.8344 25.4671C17.9988 25.5214 18.178 25.5082 18.3327 25.4303C18.4873 25.3525 18.6046 25.2164 18.6589 25.052C18.7132 24.8876 18.7 24.7084 18.6222 24.5538L18.6242 24.5548Z" fill="#AA7E54"/>
<path d="M11.8477 0.5H13.1477V4.957H11.8477V0.5Z" fill="#E2A76F"/>
<path d="M1.11426 2.13086H23.8893V17.6739H1.11426V2.13086Z" fill="#EAEAF0"/>
<path d="M22.5812 11.9664C22.4804 11.9664 22.3837 11.9263 22.3125 11.8551C22.2412 11.7838 22.2012 11.6871 22.2012 11.5864V8.88636C22.2012 8.78545 22.2413 8.68866 22.3126 8.61731C22.384 8.54595 22.4808 8.50586 22.5817 8.50586C22.6826 8.50586 22.7794 8.54595 22.8507 8.61731C22.9221 8.68866 22.9622 8.78545 22.9622 8.88636V11.5864C22.9622 11.6363 22.9523 11.6858 22.9332 11.732C22.914 11.7782 22.8859 11.8201 22.8505 11.8554C22.8151 11.8907 22.7731 11.9187 22.7269 11.9377C22.6807 11.9568 22.6312 11.9665 22.5812 11.9664Z" fill="#B4B4B8"/>
<path d="M0 16.6953H25V18.6523H0V16.6953Z" fill="#E2A76F"/>
</svg>
