<svg width="27" height="31" viewBox="0 0 27 31" fill="none" xmlns="http://www.w3.org/2000/svg">
<path d="M9.63379 25.59C9.66989 25.8836 9.6816 26.1796 9.66879 26.475C9.65825 26.9411 9.7405 27.4046 9.91075 27.8386C10.081 28.2726 10.3359 28.6684 10.6605 29.003C10.9851 29.3376 11.3731 29.6042 11.8017 29.7875C12.2304 29.9708 12.6912 30.067 13.1574 30.0705C13.6236 30.074 14.0858 29.9848 14.5172 29.808C14.9485 29.6312 15.3404 29.3704 15.6701 29.0407C15.9997 28.7111 16.2605 28.3192 16.4373 27.8878C16.6141 27.4564 16.7033 26.9942 16.6998 26.528C16.6859 26.2153 16.6976 25.9019 16.7348 25.591L13.1838 23.832L9.63379 25.59Z" fill="#E6F7FF"/>
<path d="M16.6996 26.532C16.6857 26.2193 16.6974 25.9059 16.7346 25.595L13.1836 23.832V30.043C14.1144 30.0404 15.0064 29.6698 15.6651 29.0121C16.3238 28.3544 16.6956 27.4629 16.6996 26.532Z" fill="#CCEEFF"/>
<path d="M19.4935 18.0483C17.8118 20.2138 16.847 22.8498 16.7335 25.5893H9.63352C9.455 22.7888 8.4519 20.1038 6.75052 17.8723C5.53915 16.1852 5.04087 14.089 5.36352 12.0373C5.68036 10.0896 6.71301 8.33047 8.25915 7.10445C9.8053 5.87843 11.7535 5.2739 13.7221 5.4093C15.6907 5.5447 17.5378 6.41028 18.9015 7.83645C20.2653 9.26261 21.0473 11.1466 21.0945 13.1193C21.1303 14.8956 20.5663 16.632 19.4935 18.0483Z" fill="#FFE666"/>
<path d="M13.1837 3.61697C12.9513 3.61724 12.7284 3.5254 12.5636 3.36158C12.3989 3.19776 12.3057 2.97531 12.3047 2.74297V0.921969C12.3047 0.688843 12.3973 0.465266 12.5621 0.300422C12.727 0.135577 12.9506 0.0429688 13.1837 0.0429688C13.4168 0.0429688 13.6404 0.135577 13.8052 0.300422C13.9701 0.465266 14.0627 0.688843 14.0627 0.921969V2.74297C14.0616 2.97531 13.9685 3.19776 13.8038 3.36158C13.639 3.5254 13.416 3.61724 13.1837 3.61697Z" fill="#FFE666"/>
<path d="M21.5526 8.45063C21.4948 8.35078 21.4573 8.24051 21.4422 8.12615C21.427 8.01178 21.4346 7.89556 21.4644 7.78412C21.4942 7.67267 21.5457 7.5682 21.6159 7.47666C21.6861 7.38512 21.7737 7.30832 21.8736 7.25064L23.3966 6.37163C23.4966 6.31392 23.6069 6.27646 23.7214 6.26141C23.8359 6.24636 23.9522 6.254 24.0638 6.2839C24.1753 6.3138 24.2798 6.36537 24.3714 6.43567C24.463 6.50598 24.5399 6.59364 24.5976 6.69364C24.6553 6.79364 24.6927 6.90403 24.7078 7.01851C24.7228 7.13298 24.7152 7.2493 24.6853 7.36082C24.6554 7.47234 24.6038 7.57689 24.5335 7.66848C24.4632 7.76007 24.3756 7.83692 24.2756 7.89463L22.7526 8.77363C22.5506 8.88986 22.3107 8.92112 22.0857 8.86055C21.8607 8.79999 21.6689 8.65254 21.5526 8.45063Z" fill="#FABE2C"/>
<path d="M1.76741 19.8803C1.70965 19.7805 1.67213 19.6702 1.657 19.5558C1.64187 19.4415 1.64943 19.3252 1.67924 19.2138C1.70905 19.1024 1.76053 18.9979 1.83073 18.9063C1.90094 18.8148 1.9885 18.738 2.08841 18.6803L3.61141 17.8013C3.81337 17.6848 4.05337 17.6532 4.2786 17.7136C4.50383 17.774 4.69585 17.9214 4.81241 18.1233C4.92897 18.3253 4.96053 18.5653 4.90014 18.7905C4.83976 19.0158 4.69237 19.2078 4.49041 19.3243L2.96741 20.2033C2.86749 20.2611 2.75717 20.2985 2.64277 20.3136C2.52836 20.3286 2.41211 20.321 2.30066 20.2911C2.18921 20.2612 2.08475 20.2096 1.99325 20.1393C1.90175 20.069 1.82501 19.9803 1.76741 19.8803Z" fill="#FFE666"/>
<path d="M18.0181 4.91282C17.9182 4.85514 17.8306 4.77833 17.7604 4.68679C17.6902 4.59526 17.6387 4.49078 17.6089 4.37934C17.5791 4.26789 17.5716 4.15167 17.5867 4.0373C17.6018 3.92294 17.6393 3.81267 17.6971 3.71281L18.5761 2.19082C18.6338 2.09095 18.7106 2.00342 18.8022 1.93324C18.8937 1.86306 18.9982 1.81159 19.1096 1.78179C19.2211 1.75198 19.3373 1.74441 19.4516 1.75952C19.566 1.77462 19.6762 1.8121 19.7761 1.86982C19.876 1.92753 19.9635 2.00435 20.0337 2.09589C20.1039 2.18744 20.1553 2.2919 20.1851 2.40333C20.2149 2.51476 20.2225 2.63097 20.2074 2.74533C20.1923 2.85968 20.1548 2.96994 20.0971 3.06982L19.2181 4.59182C19.1604 4.69172 19.0836 4.77928 18.9921 4.84949C18.9005 4.9197 18.7961 4.97118 18.6846 5.00099C18.5732 5.0308 18.4569 5.03836 18.3426 5.02323C18.2282 5.0081 18.118 4.97058 18.0181 4.91282Z" fill="#FABE2C"/>
<path d="M7.15017 4.59182L6.27118 3.06982C6.21346 2.96995 6.17599 2.85969 6.16089 2.74533C6.14578 2.63098 6.15334 2.51477 6.18315 2.40334C6.21296 2.29191 6.26443 2.18744 6.33461 2.0959C6.40479 2.00435 6.4923 1.92753 6.59218 1.86982C6.69205 1.8121 6.80231 1.77462 6.91667 1.75952C7.03102 1.74441 7.14723 1.75198 7.25866 1.78179C7.37009 1.8116 7.47456 1.86306 7.5661 1.93324C7.65764 2.00342 7.73446 2.09095 7.79217 2.19082L8.67119 3.71282C8.7289 3.81269 8.76637 3.92295 8.78148 4.0373C8.79658 4.15166 8.78902 4.26787 8.75921 4.3793C8.72941 4.49073 8.67794 4.5952 8.60775 4.68674C8.53757 4.77828 8.45006 4.8551 8.35019 4.91282C8.25032 4.97053 8.14005 5.00801 8.02569 5.02312C7.91134 5.03822 7.79513 5.03065 7.6837 5.00084C7.57227 4.97104 7.4678 4.91957 7.37626 4.84939C7.28472 4.77921 7.20789 4.69169 7.15017 4.59182Z" fill="#FFE666"/>
<path d="M23.4012 20.1975L21.8782 19.3185C21.6762 19.2019 21.5289 19.0099 21.4685 18.7847C21.4081 18.5594 21.4396 18.3194 21.5562 18.1175C21.6728 17.9155 21.8648 17.7681 22.09 17.7077C22.3152 17.6473 22.5552 17.6789 22.7572 17.7955L24.2802 18.6745C24.4822 18.791 24.6296 18.983 24.6899 19.2083C24.7503 19.4335 24.7188 19.6735 24.6022 19.8755C24.4856 20.0774 24.2936 20.2248 24.0684 20.2852C23.8432 20.3456 23.6031 20.314 23.4012 20.1975Z" fill="#FABE2C"/>
<path d="M3.61019 8.77364L2.08719 7.89464C1.88523 7.77808 1.73784 7.58606 1.67746 7.36083C1.61707 7.1356 1.64863 6.8956 1.76519 6.69364C1.88175 6.49168 2.07377 6.34429 2.299 6.2839C2.52424 6.22351 2.76423 6.25508 2.96619 6.37164L4.48919 7.25064C4.69116 7.3672 4.83854 7.55922 4.89893 7.78445C4.95931 8.00968 4.92775 8.24968 4.81119 8.45164C4.69463 8.6536 4.50261 8.80098 4.27738 8.86137C4.05215 8.92176 3.81215 8.8902 3.61019 8.77364Z" fill="#FFE666"/>
<path d="M25.4886 14.1642H23.7306C23.4974 14.1642 23.2739 14.0716 23.109 13.9068C22.9442 13.742 22.8516 13.5184 22.8516 13.2852C22.8516 13.0521 22.9442 12.8285 23.109 12.6637C23.2739 12.4989 23.4974 12.4063 23.7306 12.4062H25.4886C25.7217 12.4062 25.9453 12.4989 26.1101 12.6637C26.275 12.8285 26.3676 13.0521 26.3676 13.2852C26.3676 13.5184 26.275 13.742 26.1101 13.9068C25.9453 14.0716 25.7217 14.1642 25.4886 14.1642Z" fill="#FABE2C"/>
<path d="M2.637 14.1642H0.879C0.645874 14.1642 0.422298 14.0716 0.257454 13.9068C0.0926094 13.742 0 13.5184 0 13.2852C0 13.0521 0.0926094 12.8285 0.257454 12.6637C0.422298 12.4989 0.645874 12.4063 0.879 12.4062H2.637C2.87013 12.4062 3.0937 12.4989 3.25855 12.6637C3.42339 12.8285 3.516 13.0521 3.516 13.2852C3.516 13.5184 3.42339 13.742 3.25855 13.9068C3.0937 14.0716 2.87013 14.1642 2.637 14.1642Z" fill="#FFE666"/>
<path d="M14.0636 2.74297V0.921969C14.0637 0.8065 14.041 0.69214 13.9969 0.585435C13.9528 0.47873 13.888 0.381778 13.8064 0.300129C13.7247 0.21848 13.6278 0.153738 13.5211 0.109611C13.4144 0.0654839 13.3 0.0428377 13.1846 0.0429693V3.61697C13.4169 3.61724 13.6399 3.5254 13.8047 3.36158C13.9694 3.19776 14.0625 2.97531 14.0636 2.74297Z" fill="#FABE2C"/>
<path d="M19.4956 18.0483C17.8138 20.2139 16.849 22.8498 16.7356 25.5893H13.1846V5.38934C14.2176 5.35358 15.2472 5.52768 16.2111 5.90113C17.1749 6.27458 18.053 6.83961 18.7923 7.56207C19.5316 8.28453 20.1167 9.14941 20.5123 10.1044C20.9078 11.0594 21.1055 12.0847 21.0936 13.1183C21.1304 14.8946 20.5674 16.6314 19.4956 18.0483Z" fill="#FABE2C"/>
<path d="M15.5632 12.6636C15.3983 12.4988 15.1748 12.4062 14.9417 12.4062C14.7086 12.4062 14.485 12.4988 14.3202 12.6636L13.1842 13.7996L12.0482 12.6636C11.9669 12.5803 11.8699 12.514 11.7629 12.4685C11.6558 12.423 11.5408 12.3992 11.4244 12.3985C11.3081 12.3977 11.1928 12.4201 11.0851 12.4643C10.9775 12.5085 10.8798 12.5736 10.7975 12.6559C10.7152 12.7382 10.6501 12.8359 10.6059 12.9436C10.5617 13.0512 10.5393 13.1665 10.5401 13.2828C10.5408 13.3992 10.5646 13.5142 10.6101 13.6213C10.6556 13.7283 10.7219 13.8253 10.8052 13.9066L12.3052 15.4066V18.5586C12.3052 18.7917 12.3978 19.0153 12.5626 19.1801C12.7275 19.345 12.951 19.4376 13.1842 19.4376C13.4173 19.4376 13.6409 19.345 13.8057 19.1801C13.9706 19.0153 14.0632 18.7917 14.0632 18.5586V15.4066L15.5632 13.9066C15.728 13.7417 15.8206 13.5182 15.8206 13.2851C15.8206 13.052 15.728 12.8284 15.5632 12.6636Z" fill="#FABE2C"/>
<path d="M14.0626 18.5596V15.4066L15.5626 13.9066C15.6459 13.8253 15.7122 13.7283 15.7577 13.6213C15.8032 13.5142 15.827 13.3992 15.8277 13.2828C15.8284 13.1665 15.806 13.0512 15.7618 12.9436C15.7176 12.8359 15.6525 12.7382 15.5703 12.6559C15.488 12.5736 15.3902 12.5085 15.2826 12.4643C15.175 12.4201 15.0597 12.3977 14.9433 12.3985C14.827 12.3992 14.712 12.423 14.6049 12.4685C14.4978 12.514 14.4008 12.5803 14.3196 12.6636L13.1836 13.8016V19.4386C13.2991 19.4387 13.4134 19.4161 13.5201 19.3719C13.6268 19.3278 13.7238 19.2631 13.8054 19.1814C13.8871 19.0998 13.9518 19.0028 13.9959 18.8961C14.0401 18.7894 14.0627 18.675 14.0626 18.5596Z" fill="#FF9100"/>
</svg>
