<svg width="25" height="26" viewBox="0 0 25 26" fill="none" xmlns="http://www.w3.org/2000/svg">
<path d="M25 9.93437L24 14.6954L12.588 23.6644L12.5 23.6204L4.385 20.1044L0 9.93437C6.182 5.29537 4.311 6.87238 12.5 0.734375C21.157 7.22337 18.745 5.25137 25 9.93437Z" fill="#FF9100"/>
<path d="M25 9.93437L24 14.6954L12.588 23.6644L12.5 23.6204V0.734375C21.157 7.22337 18.745 5.25137 25 9.93437Z" fill="#FF7816"/>
<path d="M20.5564 5.17773H4.44336V20.9247H20.5564V5.17773Z" fill="#EBEBF0"/>
<path d="M20.557 5.17773H12.5V20.9247H20.557V5.17773Z" fill="#D2D2D7"/>
<path d="M15.708 17.4085L15.608 18.2995L14.502 18.3895L12.5 20.0005L10.493 18.3745L9.357 18.5745L9.307 17.4085L0 9.9375V25.7375H25V9.9375L15.708 17.4085Z" fill="#FFD400"/>
<path d="M15.7081 17.4085L15.6081 18.2995L14.5021 18.3895L14.4951 18.3845L12.4951 20.0005V25.7375H24.9951V9.9375L15.7081 17.4085Z" fill="#FDBF00"/>
<path d="M9.30187 17.4102L10.4889 18.3772L4.11687 22.6402L3.29688 21.4102L9.30187 17.4102Z" fill="#FDBF00"/>
<path d="M21.6988 21.4102L20.8788 22.6402L14.5068 18.3922L15.7068 17.4102L21.6988 21.4102Z" fill="#FF9F00"/>
<path d="M16.1619 9.57422H8.83789V11.0392H16.1619V9.57422Z" fill="#B9C3CD"/>
<path d="M16.1619 12.5039H8.83789V13.9689H16.1619V12.5039Z" fill="#B9C3CD"/>
<path d="M16.162 9.57422H12.5V11.0392H16.162V9.57422Z" fill="#909BA6"/>
<path d="M16.162 12.5039H12.5V13.9689H16.162V12.5039Z" fill="#909BA6"/>
</svg>
