<svg width="36" height="26" viewBox="0 0 36 26" fill="none" xmlns="http://www.w3.org/2000/svg">
<path d="M28.2136 19.5197C28.0327 19.8329 27.7348 20.0614 27.3855 20.1552C27.0362 20.2489 26.664 20.2002 26.3506 20.0197L25.7506 19.6697C26.0543 19.8554 26.2735 20.1524 26.3612 20.4975C26.4489 20.8425 26.3983 21.2081 26.2201 21.5163C26.0419 21.8245 25.7503 22.0508 25.4076 22.1469C25.0648 22.243 24.698 22.2013 24.3856 22.0307L23.0536 21.2627C23.3636 21.4423 23.5896 21.7376 23.682 22.0837C23.7745 22.4299 23.7258 22.7985 23.5466 23.1087L23.5356 23.1277C23.3568 23.4391 23.0617 23.6666 22.7151 23.7604C22.3686 23.8541 21.999 23.8064 21.6876 23.6277L20.5436 22.9657C20.8431 23.1402 21.0612 23.4262 21.1502 23.7611C21.2392 24.0961 21.1919 24.4526 21.0186 24.7527L20.9636 24.8477C20.79 25.1483 20.5041 25.3677 20.1688 25.4575C19.8335 25.5473 19.4762 25.5003 19.1756 25.3267L6.8026 18.1837C5.96007 17.6966 5.25904 16.9983 4.7686 16.1577L3.8916 14.6577L5.6256 10.3117L8.5466 6.59375L12.5156 8.88574L15.0666 7.54074C15.3522 7.39068 15.6708 7.31412 15.9934 7.31796C16.316 7.3218 16.6326 7.40592 16.9146 7.56274L18.1746 8.29074L18.9596 8.74374L19.4176 9.00775C19.6053 9.11558 19.7845 9.23759 19.9536 9.37274L22.9266 11.7497C23.1978 11.9651 23.3774 12.2751 23.4292 12.6175C23.4811 12.9599 23.4014 13.3092 23.2061 13.5952C23.0109 13.8811 22.7146 14.0826 22.3768 14.1589C22.039 14.2353 21.6849 14.1809 21.3856 14.0067L27.7186 17.6628C27.9316 17.7847 28.107 17.9629 28.2256 18.1777C28.3416 18.3837 28.4019 18.6164 28.4005 18.8528C28.3991 19.0892 28.3361 19.3212 28.2176 19.5257L28.2136 19.5197Z" fill="#FFCEBF"/>
<path d="M28.2137 19.5203C28.0362 19.8282 27.7454 20.0545 27.4033 20.1511C27.0613 20.2477 26.6951 20.2068 26.3827 20.0373L26.3507 20.0203L25.7507 19.6703L25.7807 19.6893L25.1127 19.3033L25.1017 19.2973L24.5077 18.9533L18.0337 15.2443C17.9725 15.209 17.9189 15.1619 17.8759 15.1059C17.8328 15.0498 17.8013 14.9858 17.783 14.9176C17.7647 14.8493 17.76 14.7781 17.7692 14.7081C17.7785 14.638 17.8014 14.5705 17.8367 14.5093C17.872 14.4481 17.9191 14.3945 17.9751 14.3514C18.0312 14.3084 18.0952 14.2769 18.1634 14.2586C18.2317 14.2403 18.3028 14.2356 18.3729 14.2448C18.443 14.2541 18.5105 14.277 18.5717 14.3123L26.3957 18.7933C26.5553 18.8857 26.7434 18.9155 26.9237 18.877C27.104 18.8386 27.2636 18.7346 27.3715 18.5851C27.4795 18.4357 27.5282 18.2515 27.508 18.0683C27.4879 17.885 27.4005 17.7157 27.2627 17.5933C27.0127 17.3596 26.7496 17.1402 26.4747 16.9363L27.7157 17.6533C27.9287 17.7752 28.1041 17.9534 28.2227 18.1683C28.3393 18.3748 28.3999 18.6083 28.3983 18.8455C28.3967 19.0827 28.3331 19.3153 28.2137 19.5203Z" fill="#FFB09E"/>
<path d="M26.2456 21.5335C26.1562 21.6888 26.037 21.8249 25.895 21.934C25.7529 22.0432 25.5908 22.1233 25.4177 22.1697C25.2447 22.2162 25.0642 22.228 24.8866 22.2047C24.709 22.1813 24.5377 22.1231 24.3826 22.0335L23.1396 21.3155L23.1126 21.3005L17.0816 17.8185C16.958 17.7472 16.8678 17.6296 16.8308 17.4918C16.7939 17.354 16.8132 17.2071 16.8846 17.0835C16.9559 16.9599 17.0734 16.8697 17.2113 16.8328C17.3491 16.7959 17.496 16.8152 17.6196 16.8865L24.2106 20.6925C24.3612 20.7801 24.5385 20.8103 24.7097 20.7774C24.8809 20.7445 25.0344 20.6508 25.1419 20.5136C25.2494 20.3764 25.3036 20.2049 25.2945 20.0308C25.2855 19.8567 25.2137 19.6918 25.0926 19.5665L24.5066 18.9575L25.1006 19.3015L25.1116 19.3075L25.7796 19.6935C26.0822 19.8795 26.3003 20.1763 26.3875 20.5207C26.4748 20.865 26.4242 21.2299 26.2466 21.5375L26.2456 21.5335Z" fill="#FFB09E"/>
<path d="M23.5414 23.1097L23.5304 23.1287C23.3515 23.44 23.0564 23.6676 22.7099 23.7613C22.3633 23.8551 21.9937 23.8074 21.6823 23.6287L20.5504 22.9737L20.5624 22.9827L20.4464 22.9157L20.2954 22.8287L19.2954 22.2497L19.3174 22.2637L16.2674 20.5027C16.205 20.4668 16.1504 20.4188 16.107 20.3614C16.0635 20.304 16.032 20.2385 16.0144 20.1688C15.9968 20.099 15.9934 20.0264 16.0043 19.9552C16.0153 19.8841 16.0405 19.8159 16.0784 19.7547C16.1563 19.6352 16.2775 19.5504 16.4166 19.5182C16.5556 19.486 16.7017 19.5087 16.8244 19.5817L21.6664 22.3747C21.7663 22.4322 21.8785 22.465 21.9936 22.4706C22.1088 22.4761 22.2236 22.4542 22.3286 22.4066C22.4336 22.3591 22.5258 22.2872 22.5976 22.1969C22.6693 22.1067 22.7186 22.0007 22.7414 21.8877C22.7414 21.8817 22.7414 21.8757 22.7414 21.8697C22.7642 21.7559 22.7595 21.6384 22.7274 21.5268C22.6954 21.4153 22.6371 21.313 22.5573 21.2287C22.3326 20.9756 22.0797 20.7492 21.8033 20.5537L23.1093 21.3067L23.0464 21.2707C23.3548 21.4499 23.5799 21.7438 23.6726 22.0883C23.7653 22.4327 23.7181 22.7999 23.5414 23.1097Z" fill="#FFB09E"/>
<path d="M24.3803 22.0318L23.1113 21.2988L23.1383 21.3138L24.3803 22.0318Z" fill="#FFB09E"/>
<path d="M21.0137 24.7502L20.9587 24.8452C20.7851 25.1458 20.4992 25.3651 20.1639 25.4549C19.8286 25.5447 19.4714 25.4977 19.1707 25.3241L17.9277 24.6061C18.2284 24.7797 18.5856 24.8267 18.9209 24.7369C19.2562 24.6471 19.5421 24.4277 19.7157 24.1271L19.7707 24.0321C19.9421 23.7359 19.9907 23.3844 19.906 23.0528C19.8213 22.7212 19.6102 22.4359 19.3177 22.2581L19.2957 22.2441L20.2957 22.8232L20.4467 22.9101L20.5627 22.9771C20.8546 23.1552 21.0651 23.4404 21.1494 23.7718C21.2337 24.1031 21.185 24.4543 21.0137 24.7502Z" fill="#FFB09E"/>
<path d="M18.9556 8.73853L14.1336 13.7075L13.6716 14.0075C13.4391 14.1607 13.1748 14.2589 12.8986 14.2945C12.4616 14.3507 12.0183 14.2615 11.637 14.0407C11.2557 13.8199 10.9577 13.4798 10.7889 13.0728C10.6201 12.6658 10.5899 12.2146 10.703 11.7888C10.8161 11.3629 11.0661 10.9861 11.4146 10.7165L15.1986 7.84752C15.2303 7.82368 15.2531 7.78988 15.2633 7.75153C15.2735 7.71317 15.2706 7.6725 15.2549 7.63605C15.2392 7.59959 15.2117 7.56948 15.1768 7.55052C15.142 7.53157 15.1018 7.52487 15.0626 7.53153C15.3483 7.38146 15.6668 7.30489 15.9894 7.30873C16.312 7.31257 16.6286 7.39671 16.9106 7.55353L18.1706 8.28153L18.9556 8.73853Z" fill="#F17551"/>
<path d="M26.7575 6.41797L29.7265 10.306L31.4125 14.482L30.5355 15.982C30.0448 16.8227 29.3434 17.521 28.5005 18.008L28.2195 18.17C28.2015 18.138 28.1825 18.106 28.1615 18.075C28.0459 17.9022 27.8919 17.7584 27.7115 17.655L18.0195 12.055L17.5005 11.755L13.9165 13.824C13.6172 13.9981 13.2631 14.0525 12.9253 13.9762C12.5876 13.8998 12.2912 13.6984 12.096 13.4124C11.9007 13.1264 11.821 12.7771 11.8729 12.4347C11.9247 12.0923 12.1043 11.7823 12.3755 11.567L15.3505 9.19296C15.516 9.06035 15.6911 8.94036 15.8745 8.83397L18.3615 7.39796C18.6455 7.23399 18.9664 7.14461 19.2942 7.13814C19.6221 7.13167 19.9463 7.20832 20.2365 7.36096L22.7885 8.70496L26.7575 6.41797Z" fill="#E38C72"/>
<path d="M20.2381 7.36494L22.7901 8.70895L21.9621 9.18794C21.8351 9.26113 21.6917 9.301 21.5452 9.3038C21.3986 9.3066 21.2538 9.27224 21.1241 9.20394L18.9911 8.08294C18.7018 7.93065 18.3786 7.85391 18.0517 7.85986C17.7248 7.8658 17.4047 7.95423 17.1211 8.11694L18.3591 7.40194C18.6436 7.23726 18.9652 7.14747 19.2938 7.141C19.6224 7.13453 19.9473 7.21158 20.2381 7.36494Z" fill="#F17551"/>
<path d="M31.4137 14.4811L30.5367 15.9811C30.046 16.8218 29.3446 17.5201 28.5017 18.0071L28.2207 18.1691C28.2027 18.1371 28.1837 18.1051 28.1627 18.0741C28.6107 17.6787 28.9925 17.2142 29.2937 16.6981L29.7827 15.8601C29.9001 15.6582 29.962 15.4287 29.962 15.1951C29.962 14.9615 29.9001 14.7321 29.7827 14.5301L25.5117 7.13011L26.7547 6.41211L29.7237 10.3001L31.4137 14.4811Z" fill="#F17551"/>
<path d="M10.2518 18.9962L9.30877 20.6302C9.18262 20.8489 8.97481 21.0085 8.73103 21.0739C8.48725 21.1394 8.22746 21.1053 8.00878 20.9792L7.29577 20.5673C7.07731 20.4409 6.91795 20.233 6.8527 19.9893C6.78744 19.7455 6.82164 19.4858 6.94777 19.2673L7.89077 17.6333C8.07512 17.327 8.37234 17.1053 8.71846 17.016C9.06459 16.9266 9.43196 16.9767 9.74153 17.1555C10.0511 17.3342 10.2781 17.6274 10.3737 17.9718C10.4693 18.3163 10.4259 18.6845 10.2528 18.9972L10.2518 18.9962Z" fill="#FFCEBF"/>
<path d="M10.2498 18.9961L9.30583 20.6301C9.17968 20.8488 8.97187 21.0083 8.72809 21.0738C8.48431 21.1392 8.22451 21.1052 8.00583 20.9791L7.29283 20.5671C7.23523 20.5339 7.18127 20.4946 7.13184 20.4501C7.33939 20.5176 7.5638 20.5117 7.76751 20.4334C7.97122 20.3551 8.14185 20.2092 8.25083 20.0201L9.19383 18.3861C9.3206 18.1669 9.38373 17.9166 9.37614 17.6635C9.36854 17.4104 9.29052 17.1644 9.15083 16.9531C9.36211 16.9649 9.56765 17.0262 9.75083 17.1321C9.90603 17.2217 10.0421 17.341 10.1511 17.4832C10.2602 17.6254 10.3402 17.7876 10.3866 17.9608C10.4329 18.1339 10.4447 18.3144 10.4212 18.492C10.3978 18.6697 10.3395 18.841 10.2498 18.9961Z" fill="#FFB09E"/>
<path d="M12.6135 20.3593L11.6705 21.9933C11.5443 22.212 11.3365 22.3716 11.0927 22.437C10.849 22.5025 10.5892 22.4684 10.3705 22.3423L9.65747 21.9314C9.54921 21.8689 9.4543 21.7857 9.37821 21.6865C9.30211 21.5874 9.24631 21.4742 9.21399 21.3535C9.18167 21.2327 9.17346 21.1068 9.18985 20.9829C9.20623 20.859 9.24688 20.7395 9.30947 20.6313L10.2525 18.9973C10.3418 18.8422 10.461 18.7062 10.6031 18.5972C10.7452 18.4882 10.9074 18.4084 11.0805 18.3624C11.2218 18.3242 11.3684 18.3096 11.5145 18.3193C11.7258 18.3308 11.9314 18.3922 12.1145 18.4983C12.4271 18.6793 12.6552 18.9768 12.7488 19.3257C12.8423 19.6746 12.7937 20.0463 12.6135 20.3593Z" fill="#FFCEBF"/>
<path d="M12.6131 20.3594L11.6701 21.9934C11.5438 22.2119 11.3359 22.3712 11.0921 22.4365C10.8484 22.5017 10.5887 22.4675 10.3701 22.3414L9.6581 21.9304C9.60016 21.8968 9.54587 21.8572 9.49609 21.8124C9.70354 21.8797 9.92782 21.8739 10.1315 21.7958C10.3351 21.7177 10.5058 21.5722 10.6151 21.3834L11.5581 19.7494C11.6849 19.5302 11.748 19.2799 11.7404 19.0268C11.7328 18.7737 11.6548 18.5276 11.5151 18.3164C11.7264 18.328 11.932 18.3894 12.1151 18.4954C12.2702 18.5851 12.4061 18.7044 12.5151 18.8466C12.6241 18.9889 12.704 19.1512 12.7503 19.3242C12.7965 19.4973 12.8082 19.6779 12.7847 19.8555C12.7611 20.0331 12.7028 20.2043 12.6131 20.3594Z" fill="#FFB09E"/>
<path d="M14.7894 22.0455L14.1514 23.1585C14.0918 23.2618 14.0125 23.3523 13.9179 23.4249C13.8234 23.4975 13.7154 23.5507 13.6002 23.5816C13.4851 23.6124 13.3649 23.6202 13.2467 23.6046C13.1285 23.589 13.0146 23.5502 12.9114 23.4905L12.1214 23.0345C12.0767 23.0088 12.0345 22.979 11.9954 22.9455C11.8308 22.8088 11.7199 22.6183 11.6822 22.4076C11.6445 22.197 11.6824 21.9798 11.7894 21.7945L12.4324 20.6815C12.5218 20.5263 12.6409 20.3903 12.783 20.2813C12.9251 20.1724 13.0873 20.0926 13.2604 20.0465C13.6098 19.9529 13.982 20.0018 14.2954 20.1825C14.6077 20.3643 14.8352 20.6625 14.9278 21.0118C15.0204 21.3611 14.9706 21.7328 14.7894 22.0455Z" fill="#FFCEBF"/>
<path d="M14.7902 22.046L14.1482 23.159C14.0887 23.2623 14.0093 23.3528 13.9147 23.4254C13.8202 23.498 13.7122 23.5513 13.597 23.5821C13.4819 23.6129 13.3618 23.6208 13.2436 23.6051C13.1254 23.5895 13.0114 23.5507 12.9082 23.491L12.1172 23.035C12.0726 23.0096 12.0304 22.9802 11.9912 22.947C12.1923 23.021 12.413 23.0214 12.6144 22.9482C12.8157 22.875 12.9846 22.7328 13.0912 22.547L13.7332 21.434C13.8601 21.2146 13.9232 20.9642 13.9156 20.7109C13.908 20.4576 13.83 20.2114 13.6902 20C13.9224 20.0136 14.1472 20.0865 14.3433 20.2115C14.5393 20.3366 14.7002 20.5097 14.8104 20.7145C14.9207 20.9193 14.9767 21.1488 14.9731 21.3814C14.9696 21.6139 14.9066 21.8417 14.7902 22.043V22.046Z" fill="#FFB09E"/>
<path d="M16.7429 24.1186L16.6029 24.3606C16.5506 24.4528 16.4804 24.5336 16.3966 24.5983C16.3128 24.6631 16.2169 24.7106 16.1146 24.7381C16.0122 24.7655 15.9055 24.7724 15.8005 24.7582C15.6955 24.7441 15.5943 24.7092 15.5029 24.6556L14.5339 24.0956L14.4909 24.0696C14.3196 23.9572 14.198 23.7833 14.1511 23.5839C14.1042 23.3844 14.1357 23.1746 14.2389 22.9976L14.3789 22.7556C14.4683 22.6005 14.5875 22.4645 14.7296 22.3556C14.8717 22.2466 15.0339 22.1668 15.2069 22.1206C15.5563 22.0271 15.9285 22.0761 16.2419 22.2566C16.5552 22.4372 16.7839 22.7348 16.8778 23.0839C16.9718 23.4331 16.9232 23.8053 16.7429 24.1186Z" fill="#FFCEBF"/>
<path d="M16.7432 24.1221L16.6032 24.3651C16.5509 24.4573 16.4807 24.538 16.3969 24.6028C16.3131 24.6676 16.2172 24.7151 16.1149 24.7426C16.0125 24.77 15.9058 24.7769 15.8008 24.7627C15.6958 24.7486 15.5946 24.7137 15.5032 24.6601L14.5342 24.1001L14.4912 24.0731C14.6743 24.165 14.8857 24.1832 15.0818 24.1238C15.2779 24.0645 15.4438 23.9321 15.5452 23.7541L15.6852 23.5111C15.812 23.292 15.8752 23.0418 15.8678 22.7887C15.8604 22.5356 15.7826 22.2895 15.6432 22.0781C15.8546 22.0901 16.0602 22.1517 16.2432 22.2581C16.3986 22.3475 16.5348 22.4667 16.6441 22.6089C16.7533 22.751 16.8335 22.9132 16.8799 23.0864C16.9264 23.2595 16.9382 23.4402 16.9147 23.6179C16.8913 23.7956 16.833 23.967 16.7432 24.1221Z" fill="#FFB09E"/>
<path d="M15.8472 5.26408C15.7764 5.26415 15.7063 5.25024 15.6409 5.22312C15.5755 5.19601 15.5161 5.15623 15.4662 5.10608L13.3842 3.02408C13.2833 2.92316 13.2266 2.78629 13.2266 2.64358C13.2266 2.50086 13.2833 2.36399 13.3842 2.26308C13.4851 2.16216 13.6219 2.10547 13.7647 2.10547C13.9074 2.10547 14.0443 2.16216 14.1452 2.26308L16.2272 4.34508C16.3026 4.42026 16.354 4.51614 16.3749 4.62056C16.3958 4.72498 16.3852 4.83325 16.3445 4.93166C16.3038 5.03006 16.2348 5.11419 16.1463 5.17336C16.0578 5.23254 15.9537 5.26411 15.8472 5.26408Z" fill="#62DBFB"/>
<path d="M17.6503 4.51905C17.5076 4.51905 17.3708 4.46237 17.2699 4.36147C17.169 4.26058 17.1123 4.12374 17.1123 3.98105V1.03605C17.1123 0.893362 17.169 0.756519 17.2699 0.655624C17.3708 0.55473 17.5076 0.498047 17.6503 0.498047C17.793 0.498047 17.9298 0.55473 18.0307 0.655624C18.1316 0.756519 18.1883 0.893362 18.1883 1.03605V3.98005C18.1884 4.05078 18.1746 4.12085 18.1476 4.18624C18.1207 4.25163 18.0811 4.31106 18.0311 4.36112C17.9811 4.41119 17.9218 4.4509 17.8564 4.478C17.7911 4.5051 17.721 4.51905 17.6503 4.51905Z" fill="#62DBFB"/>
<path d="M19.4522 5.26408C19.3457 5.26431 19.2414 5.23288 19.1527 5.17378C19.0641 5.11468 18.9949 5.03057 18.9541 4.93212C18.9133 4.83367 18.9026 4.72532 18.9235 4.6208C18.9443 4.51629 18.9958 4.42032 19.0712 4.34508L21.1532 2.26308C21.2032 2.21311 21.2625 2.17347 21.3278 2.14643C21.3931 2.11939 21.4631 2.10547 21.5337 2.10547C21.6044 2.10547 21.6744 2.11939 21.7397 2.14643C21.8049 2.17347 21.8643 2.21311 21.9142 2.26308C21.9642 2.31304 22.0038 2.37237 22.0309 2.43765C22.0579 2.50294 22.0718 2.57291 22.0718 2.64358C22.0718 2.71424 22.0579 2.78422 22.0309 2.8495C22.0038 2.91479 21.9642 2.97411 21.9142 3.02408L19.8322 5.10608C19.7824 5.15615 19.7232 5.19588 19.658 5.223C19.5928 5.25011 19.5229 5.26407 19.4522 5.26408Z" fill="#62DBFB"/>
<path d="M25.0443 16.1149L19.6353 12.9919C19.2893 12.7922 18.8979 12.6845 18.4984 12.679C18.0989 12.6736 17.7047 12.7706 17.3533 12.9609L14.6403 14.6389C14.3265 14.7865 13.9868 14.8715 13.6403 14.8889C13.1505 14.8721 12.6702 14.7483 12.2333 14.5261C11.7964 14.3039 11.4135 13.9888 11.1113 13.6029L12.1763 13.5149C12.3828 13.7649 12.6712 13.9336 12.9903 13.9911C13.3094 14.0486 13.6386 13.9911 13.9193 13.8289L17.4973 11.7579C17.9158 11.5408 18.389 11.4517 18.8578 11.5019C19.3266 11.5521 19.7702 11.7392 20.1333 12.0399L25.0443 16.1149Z" fill="#F17551"/>
<path d="M9.12685 5.57282L2.93585 16.2958C2.90302 16.353 2.85922 16.403 2.80697 16.4432C2.75472 16.4833 2.69506 16.5127 2.6314 16.5297C2.56774 16.5467 2.50135 16.551 2.43605 16.5423C2.37074 16.5335 2.3078 16.512 2.25085 16.4788L0.250854 15.3258C0.193727 15.293 0.143653 15.2492 0.10351 15.1969C0.0633674 15.1447 0.0339473 15.085 0.0169411 15.0214C-6.501e-05 14.9577 -0.00432171 14.8913 0.00441572 14.826C0.0131531 14.7607 0.0347124 14.6978 0.0678541 14.6408L6.25885 3.91882C6.29169 3.86169 6.33549 3.81162 6.38773 3.77147C6.43998 3.73133 6.49965 3.70192 6.56331 3.68491C6.62696 3.66791 6.69335 3.66365 6.75866 3.67238C6.82397 3.68112 6.88691 3.70268 6.94385 3.73582L8.94385 4.88882C9.00085 4.92165 9.0508 4.96541 9.09086 5.01758C9.13092 5.06975 9.16029 5.12931 9.17729 5.19285C9.19428 5.25639 9.19858 5.32266 9.18993 5.38786C9.18127 5.45306 9.15984 5.51592 9.12685 5.57282Z" fill="#8795DE"/>
<path d="M9.12541 5.57246L2.93441 16.2944C2.90166 16.3517 2.85792 16.4018 2.80571 16.4421C2.7535 16.4823 2.69384 16.5118 2.63018 16.5289C2.56652 16.546 2.5001 16.5504 2.43475 16.5417C2.3694 16.5331 2.30641 16.5116 2.24941 16.4785L0.816406 15.6515C0.873413 15.6846 0.936404 15.7061 1.00175 15.7147C1.0671 15.7234 1.13352 15.719 1.19718 15.7019C1.26084 15.6848 1.3205 15.6553 1.37271 15.6151C1.42492 15.5748 1.46866 15.5247 1.50141 15.4675L7.69241 4.74545C7.75858 4.63152 7.77711 4.49607 7.74397 4.36855C7.71082 4.24103 7.62868 4.13174 7.51541 4.06445L8.94141 4.88846C8.99848 4.92121 9.04854 4.9649 9.08869 5.01703C9.12885 5.06916 9.15832 5.12871 9.17541 5.19225C9.1925 5.2558 9.19689 5.32209 9.18831 5.38734C9.17973 5.45258 9.15835 5.51549 9.12541 5.57246Z" fill="#6C7FD8"/>
<path d="M29.0374 3.74891L35.2284 14.4709C35.2616 14.5279 35.2831 14.5908 35.2918 14.6561C35.3006 14.7214 35.2963 14.7878 35.2793 14.8514C35.2623 14.9151 35.2329 14.9748 35.1927 15.027C35.1526 15.0793 35.1025 15.1231 35.0454 15.1559L33.0454 16.3089C32.9885 16.342 32.9255 16.3636 32.8602 16.3723C32.7949 16.3811 32.7285 16.3768 32.6649 16.3598C32.6012 16.3428 32.5415 16.3134 32.4893 16.2732C32.437 16.2331 32.3932 16.183 32.3604 16.1259L26.1694 5.40391C26.1363 5.34696 26.1147 5.28402 26.106 5.21871C26.0972 5.1534 26.1015 5.08702 26.1185 5.02336C26.1355 4.9597 26.1649 4.90003 26.2051 4.84778C26.2452 4.79553 26.2953 4.75173 26.3524 4.7189L28.3524 3.5659C28.4094 3.53276 28.4723 3.5112 28.5376 3.50246C28.6029 3.49372 28.6693 3.49798 28.733 3.51499C28.7966 3.532 28.8563 3.56142 28.9085 3.60156C28.9608 3.6417 29.0046 3.69178 29.0374 3.74891Z" fill="#FEDF30"/>
<path d="M35.0459 15.1559L33.6169 15.9809C33.731 15.9141 33.8139 15.8049 33.8477 15.6771C33.8814 15.5493 33.8631 15.4133 33.7969 15.2989L27.6059 4.5759C27.5731 4.51878 27.5293 4.4687 27.477 4.42856C27.4248 4.38841 27.3651 4.359 27.3015 4.34199C27.2378 4.32499 27.1714 4.32073 27.1061 4.32947C27.0408 4.3382 26.9778 4.35976 26.9209 4.3929L28.3539 3.5659C28.4109 3.53276 28.4738 3.5112 28.5391 3.50246C28.6044 3.49372 28.6708 3.49798 28.7345 3.51499C28.7981 3.532 28.8578 3.56142 28.91 3.60156C28.9623 3.6417 29.0061 3.69178 29.0389 3.74891L35.2299 14.4719C35.2629 14.5289 35.2842 14.5918 35.2928 14.657C35.3014 14.7223 35.297 14.7886 35.2799 14.8521C35.2628 14.9156 35.2333 14.9752 35.1932 15.0273C35.153 15.0795 35.103 15.1232 35.0459 15.1559Z" fill="#FED402"/>
</svg>
