<svg width="36" height="29" viewBox="0 0 36 29" fill="none" xmlns="http://www.w3.org/2000/svg">
<path d="M14.0017 22.5186C13.837 22.5121 13.6812 22.442 13.567 22.3232C13.4528 22.2044 13.389 22.0459 13.389 21.8811C13.389 21.7163 13.4528 21.5578 13.567 21.439C13.6812 21.3201 13.837 21.2501 14.0017 21.2436H14.5647C14.7065 21.2498 14.848 21.2272 14.9808 21.1772C15.1136 21.1272 15.2348 21.0509 15.3373 20.9528C15.4398 20.8547 15.5214 20.7368 15.5771 20.6063C15.6328 20.4759 15.6615 20.3355 15.6615 20.1936C15.6615 20.0517 15.6328 19.9113 15.5771 19.7808C15.5214 19.6503 15.4398 19.5325 15.3373 19.4344C15.2348 19.3363 15.1136 19.2599 14.9808 19.21C14.848 19.16 14.7065 19.1374 14.5647 19.1436H14.0017C13.275 19.1436 12.5781 19.4322 12.0642 19.9461C11.5504 20.4599 11.2617 21.1569 11.2617 21.8836C11.2617 22.6103 11.5504 23.3072 12.0642 23.8211C12.5781 24.3349 13.275 24.6236 14.0017 24.6236C14.0876 24.6202 14.1732 24.6342 14.2535 24.6647C14.3338 24.6952 14.4071 24.7416 14.4691 24.8011C14.531 24.8606 14.5803 24.9321 14.614 25.0111C14.6476 25.0901 14.665 25.1752 14.665 25.2611C14.665 25.347 14.6476 25.432 14.614 25.5111C14.5803 25.5901 14.531 25.6615 14.4691 25.7211C14.4071 25.7806 14.3338 25.827 14.2535 25.8575C14.1732 25.888 14.0876 25.902 14.0017 25.8986H13.4387C13.297 25.8924 13.1554 25.915 13.0227 25.965C12.8899 26.0149 12.7686 26.0913 12.6661 26.1894C12.5636 26.2875 12.482 26.4053 12.4263 26.5358C12.3706 26.6663 12.3419 26.8067 12.3419 26.9486C12.3419 27.0905 12.3706 27.2309 12.4263 27.3614C12.482 27.4918 12.5636 27.6097 12.6661 27.7078C12.7686 27.8059 12.8899 27.8822 13.0227 27.9322C13.1554 27.9822 13.297 28.0048 13.4387 27.9986H14.0017C14.7284 27.9986 15.4253 27.7099 15.9392 27.1961C16.453 26.6822 16.7417 25.9853 16.7417 25.2586C16.7417 24.5319 16.453 23.8349 15.9392 23.3211C15.4253 22.8072 14.7284 22.5186 14.0017 22.5186Z" fill="#05303D"/>
<path d="M4.90349 19.2509C4.65419 19.1262 4.36558 19.1057 4.10116 19.1938C3.83674 19.282 3.61816 19.4716 3.49349 19.7209L2.74449 21.2209L1.99549 19.7209C1.93458 19.5961 1.84954 19.4846 1.74529 19.3928C1.64104 19.3011 1.51965 19.2309 1.38812 19.1864C1.25659 19.1419 1.11754 19.1238 0.979002 19.1333C0.840463 19.1428 0.705183 19.1797 0.580979 19.2418C0.456774 19.3039 0.346108 19.39 0.255374 19.4951C0.16464 19.6003 0.0956389 19.7223 0.0523563 19.8543C0.00907369 19.9862 -0.00763169 20.1254 0.00320545 20.2639C0.0140426 20.4023 0.0522074 20.5372 0.115495 20.6609L1.69349 23.8168V26.9468C1.68731 27.0886 1.70988 27.2301 1.75986 27.3629C1.80984 27.4957 1.88618 27.617 1.98429 27.7194C2.0824 27.8219 2.20025 27.9035 2.33073 27.9592C2.46121 28.0149 2.60162 28.0437 2.74349 28.0437C2.88537 28.0437 3.02578 28.0149 3.15626 27.9592C3.28674 27.9035 3.40459 27.8219 3.5027 27.7194C3.60081 27.617 3.67715 27.4957 3.72713 27.3629C3.77711 27.2301 3.79968 27.0886 3.79349 26.9468V23.8168L5.37149 20.6609C5.49628 20.4118 5.51708 20.1234 5.42932 19.859C5.34157 19.5946 5.15244 19.3759 4.90349 19.2509Z" fill="#08475E"/>
<path d="M9.57253 21.2416C9.71428 21.2478 9.8558 21.2253 9.98859 21.1753C10.1214 21.1253 10.2427 21.0489 10.3452 20.9508C10.4476 20.8527 10.5292 20.7349 10.5849 20.6044C10.6406 20.4739 10.6694 20.3335 10.6694 20.1916C10.6694 20.0498 10.6406 19.9093 10.5849 19.7789C10.5292 19.6484 10.4476 19.5305 10.3452 19.4324C10.2427 19.3343 10.1214 19.258 9.98859 19.208C9.8558 19.158 9.71428 19.1354 9.57253 19.1416H7.32053C7.04179 19.1416 6.77446 19.2524 6.57736 19.4495C6.38026 19.6466 6.26953 19.9139 6.26953 20.1927V26.9477C6.26953 27.2264 6.38026 27.4937 6.57736 27.6908C6.77446 27.8879 7.04179 27.9986 7.32053 27.9986H9.57253C9.71428 28.0048 9.8558 27.9823 9.98859 27.9323C10.1214 27.8823 10.2427 27.806 10.3452 27.7078C10.4476 27.6097 10.5292 27.4919 10.5849 27.3614C10.6406 27.2309 10.6694 27.0905 10.6694 26.9486C10.6694 26.8068 10.6406 26.6664 10.5849 26.5359C10.5292 26.4054 10.4476 26.2876 10.3452 26.1894C10.2427 26.0913 10.1214 26.015 9.98859 25.965C9.8558 25.915 9.71428 25.8925 9.57253 25.8986H8.37254V24.6237H8.82453C9.09508 24.6118 9.35063 24.496 9.5379 24.3004C9.72516 24.1048 9.8297 23.8444 9.8297 23.5736C9.8297 23.3028 9.72516 23.0425 9.5379 22.8469C9.35063 22.6512 9.09508 22.5355 8.82453 22.5236H8.37254V21.2486L9.57253 21.2416Z" fill="#08475E"/>
<path d="M30.8899 19.1406C30.4565 19.1406 30.0274 19.226 29.627 19.3918C29.2266 19.5577 28.8628 19.8007 28.5564 20.1072C28.25 20.4136 28.0069 20.7774 27.841 21.1778C27.6752 21.5781 27.5898 22.0073 27.5898 22.4406V24.6956C27.5898 25.5716 27.9378 26.4118 28.5573 27.0312C29.1767 27.6506 30.0168 27.9986 30.8929 27.9986C31.7689 27.9986 32.609 27.6506 33.2284 27.0312C33.8479 26.4118 34.1959 25.5716 34.1959 24.6956V22.4416C34.1945 21.5657 33.8456 20.7261 33.2258 20.1071C32.6059 19.4882 31.7658 19.1406 30.8899 19.1406ZM32.0898 24.6966C32.0898 25.0149 31.9634 25.3201 31.7384 25.5452C31.5133 25.7702 31.2081 25.8966 30.8899 25.8966C30.5716 25.8966 30.2664 25.7702 30.0413 25.5452C29.8163 25.3201 29.6898 25.0149 29.6898 24.6966V22.4446C29.6898 22.1264 29.8163 21.8211 30.0413 21.5961C30.2664 21.3711 30.5716 21.2446 30.8899 21.2446C31.2081 21.2446 31.5133 21.3711 31.7384 21.5961C31.9634 21.8211 32.0898 22.1264 32.0898 22.4446V24.6966Z" fill="#05303D"/>
<path d="M25.2591 19.1396C24.9803 19.1396 24.713 19.2503 24.5159 19.4474C24.3188 19.6445 24.2081 19.9119 24.2081 20.1906V22.4906L22.8221 19.7176C22.7162 19.5059 22.5419 19.3361 22.3275 19.2358C22.113 19.1354 21.871 19.1104 21.6406 19.1648C21.4102 19.2192 21.2049 19.3498 21.058 19.5354C20.9111 19.7211 20.8311 19.9509 20.8311 20.1876V26.9426C20.8429 27.2132 20.9587 27.4687 21.1543 27.656C21.3499 27.8433 21.6103 27.9478 21.8811 27.9478C22.1519 27.9478 22.4122 27.8433 22.6078 27.656C22.8035 27.4687 22.9193 27.2132 22.9311 26.9426V24.6426L24.3171 27.4156C24.423 27.6273 24.5972 27.7971 24.8117 27.8975C25.0261 27.9978 25.2681 28.0228 25.4985 27.9684C25.7289 27.914 25.9342 27.7834 26.0812 27.5978C26.2281 27.4122 26.3081 27.1823 26.3081 26.9456V20.1906C26.3081 19.9122 26.1976 19.6452 26.0009 19.4482C25.8043 19.2511 25.5375 19.1401 25.2591 19.1396Z" fill="#08475E"/>
<path d="M34.8296 16.738H20.1936C19.9148 16.738 19.6475 16.6273 19.4504 16.4302C19.2533 16.2331 19.1426 15.9657 19.1426 15.687V1.051C19.1426 0.772256 19.2533 0.504932 19.4504 0.307831C19.6475 0.11073 19.9148 0 20.1936 0H34.8296C35.1083 0 35.3757 0.11073 35.5728 0.307831C35.7699 0.504932 35.8806 0.772256 35.8806 1.051V15.688C35.8803 15.9666 35.7695 16.2336 35.5724 16.4305C35.3753 16.6274 35.1082 16.738 34.8296 16.738Z" fill="#FF3838"/>
<path d="M34.8297 0H27.5117V16.738H34.8297C35.1085 16.738 35.3758 16.6273 35.5729 16.4302C35.77 16.2331 35.8807 15.9657 35.8807 15.687V1.051C35.8807 0.772256 35.77 0.504932 35.5729 0.307831C35.3758 0.11073 35.1085 0 34.8297 0Z" fill="#E20059"/>
<path d="M15.6899 16.738H1.05393C0.77536 16.738 0.508186 16.6274 0.311114 16.4305C0.114042 16.2336 0.00319474 15.9666 0.00292969 15.688L0.00292969 1.051C0.00292969 0.772256 0.11366 0.504932 0.31076 0.307831C0.507861 0.11073 0.775187 0 1.05393 0H15.6899C15.9687 0 16.236 0.11073 16.4331 0.307831C16.6302 0.504932 16.7409 0.772256 16.7409 1.051V15.688C16.7407 15.9666 16.6298 16.2336 16.4327 16.4305C16.2357 16.6274 15.9685 16.738 15.6899 16.738Z" fill="#1FD879"/>
<path d="M15.6891 0H8.37109V16.738H15.6891C15.9673 16.7375 16.234 16.6266 16.4306 16.4298C16.6273 16.233 16.7378 15.9662 16.7381 15.688V1.051C16.7381 0.772602 16.6276 0.50558 16.431 0.308537C16.2343 0.111493 15.9675 0.000529774 15.6891 0Z" fill="#00B9A0"/>
<path d="M7.24515 11.6722C6.96644 11.6721 6.69918 11.5613 6.50215 11.3642L4.25015 9.11218C4.05999 8.91372 3.95513 8.64867 3.95807 8.37382C3.961 8.09898 4.07148 7.83621 4.26584 7.64186C4.46019 7.44751 4.72295 7.33702 4.99779 7.33409C5.27263 7.33116 5.53769 7.43601 5.73615 7.62617L7.24415 9.13417L11.0041 5.37417C11.2026 5.18401 11.4677 5.07916 11.7425 5.08209C12.0173 5.08502 12.2801 5.19551 12.4745 5.38986C12.6688 5.58422 12.7793 5.84698 12.7822 6.12183C12.7852 6.39667 12.6803 6.66171 12.4901 6.86017L7.99015 11.3602C7.89268 11.4587 7.77667 11.5371 7.64881 11.5906C7.52095 11.6442 7.38377 11.6719 7.24515 11.6722Z" fill="#F0F5FF"/>
<path d="M28.9987 8.36914L31.0697 6.29814C31.1707 6.20134 31.2514 6.08535 31.307 5.95697C31.3626 5.82859 31.392 5.69039 31.3935 5.55049C31.395 5.41059 31.3685 5.2718 31.3157 5.14226C31.2628 5.01272 31.1847 4.89504 31.0857 4.79611C30.9868 4.69718 30.8691 4.619 30.7396 4.56615C30.61 4.5133 30.4712 4.48685 30.3313 4.48834C30.1914 4.48983 30.0532 4.51924 29.9249 4.57484C29.7965 4.63045 29.6805 4.71112 29.5837 4.81214L27.5127 6.88314L25.4417 4.81214C25.3449 4.71112 25.2289 4.63045 25.1005 4.57484C24.9721 4.51924 24.834 4.48983 24.6941 4.48834C24.5542 4.48685 24.4154 4.5133 24.2858 4.56615C24.1563 4.619 24.0386 4.69718 23.9397 4.79611C23.8407 4.89504 23.7626 5.01272 23.7097 5.14226C23.6569 5.2718 23.6304 5.41059 23.6319 5.55049C23.6334 5.69039 23.6628 5.82859 23.7184 5.95697C23.774 6.08535 23.8547 6.20134 23.9557 6.29814L26.0267 8.36914L23.9557 10.4401C23.7655 10.6386 23.6607 10.9037 23.6636 11.1785C23.6665 11.4533 23.777 11.7161 23.9714 11.9104C24.1657 12.1048 24.4285 12.2153 24.7033 12.2182C24.9782 12.2212 25.2433 12.1163 25.4417 11.9261L27.5127 9.85514L29.5837 11.9261C29.7822 12.1163 30.0472 12.2212 30.3221 12.2182C30.5969 12.2153 30.8597 12.1048 31.054 11.9104C31.2484 11.7161 31.3589 11.4533 31.3618 11.1785C31.3647 10.9037 31.2599 10.6386 31.0697 10.4401L28.9987 8.36914Z" fill="#F0F5FF"/>
<path d="M27.5117 9.85514L29.5827 11.9261C29.7812 12.1163 30.0462 12.2211 30.3211 12.2182C30.5959 12.2153 30.8587 12.1048 31.053 11.9104C31.2474 11.7161 31.3579 11.4533 31.3608 11.1785C31.3637 10.9037 31.2589 10.6386 31.0687 10.4401L28.9977 8.36914L31.0687 6.29814C31.1697 6.20134 31.2504 6.08535 31.306 5.95697C31.3616 5.82859 31.391 5.69039 31.3925 5.55049C31.394 5.41059 31.3676 5.2718 31.3147 5.14226C31.2619 5.01272 31.1837 4.89504 31.0847 4.79611C30.9858 4.69718 30.8682 4.619 30.7386 4.56615C30.6091 4.5133 30.4703 4.48685 30.3304 4.48834C30.1905 4.48983 30.0523 4.51924 29.9239 4.57484C29.7955 4.63045 29.6795 4.71112 29.5827 4.81214L27.5117 6.88314V9.85514Z" fill="#D8F1FB"/>
<path d="M11.0051 5.37308L8.37109 8.00706V10.9801L12.4921 6.85907C12.6893 6.66201 12.8001 6.39469 12.8002 6.11592C12.8003 5.83715 12.6896 5.56976 12.4926 5.37257C12.2955 5.17539 12.0282 5.06455 11.7495 5.06445C11.4707 5.06436 11.2033 5.17501 11.0061 5.37207L11.0051 5.37308Z" fill="#D8F1FB"/>
<path d="M9.57207 21.2416C9.71382 21.2478 9.85534 21.2253 9.98813 21.1753C10.1209 21.1253 10.2422 21.0489 10.3447 20.9508C10.4472 20.8527 10.5287 20.7349 10.5845 20.6044C10.6402 20.4739 10.6689 20.3335 10.6689 20.1916C10.6689 20.0498 10.6402 19.9093 10.5845 19.7789C10.5287 19.6484 10.4472 19.5305 10.3447 19.4324C10.2422 19.3343 10.1209 19.258 9.98813 19.208C9.85534 19.158 9.71382 19.1354 9.57207 19.1416H8.37207V27.9947H9.57207C9.71382 28.0008 9.85534 27.9783 9.98813 27.9283C10.1209 27.8783 10.2422 27.802 10.3447 27.7038C10.4472 27.6057 10.5287 27.4879 10.5845 27.3574C10.6402 27.2269 10.6689 27.0865 10.6689 26.9446C10.6689 26.8028 10.6402 26.6624 10.5845 26.5319C10.5287 26.4014 10.4472 26.2836 10.3447 26.1854C10.2422 26.0873 10.1209 26.011 9.98813 25.961C9.85534 25.911 9.71382 25.8885 9.57207 25.8946H8.37207V24.6197H8.82407C9.09462 24.6078 9.35017 24.492 9.53744 24.2964C9.7247 24.1008 9.82924 23.8404 9.82924 23.5696C9.82924 23.2988 9.7247 23.0385 9.53744 22.8429C9.35017 22.6472 9.09462 22.5315 8.82407 22.5196H8.37207V21.2447L9.57207 21.2416Z" fill="#05303D"/>
</svg>
