<svg width="24" height="24" viewBox="0 0 24 24" fill="none" xmlns="http://www.w3.org/2000/svg">
<g clip-path="url(#clip0_9725_21603)">
<path d="M20.7569 14.0896H22.5948C23.1125 14.0896 23.5321 13.6697 23.5318 13.1521L23.5305 10.8342C23.5303 10.3169 23.1108 9.89769 22.5936 9.89769H20.7539C20.5302 8.96244 20.1606 8.084 19.6703 7.28764L20.9695 5.98844C21.3356 5.6224 21.3354 5.02896 20.9693 4.66309L19.3297 3.02467C18.9637 2.65895 18.3706 2.65909 18.0049 3.0249L16.7049 4.32494C15.9088 3.83589 15.0308 3.4674 14.0963 3.24451V1.40574C14.0963 0.888236 13.6768 0.46875 13.1593 0.46875H10.8414C10.3239 0.46875 9.90444 0.888236 9.90444 1.40574V3.24451C8.96989 3.4674 8.09187 3.83589 7.29579 4.32494L5.99576 3.02499C5.62994 2.65918 5.03683 2.65904 4.67092 3.02476L3.03132 4.66309C2.66518 5.029 2.66504 5.62244 3.03109 5.98844L4.33028 7.28764C3.84001 8.084 3.4704 8.96244 3.24667 9.89769H1.407C0.889736 9.89769 0.470297 10.3169 0.470016 10.8342L0.46875 13.152C0.468469 13.6697 0.888049 14.0895 1.40574 14.0895H3.24367C3.46642 15.0264 3.83547 15.9064 4.32555 16.7042L3.02556 18.0042C2.65974 18.37 2.6596 18.9631 3.02532 19.329L4.6637 20.9686C5.02961 21.3348 5.62305 21.3349 5.98901 20.9689L7.2882 19.6697C8.0863 20.161 8.9668 20.5311 9.9043 20.7547V22.5935C9.9043 23.111 10.3238 23.5305 10.8413 23.5305H13.1591C13.6766 23.5305 14.0961 23.111 14.0961 22.5935V20.7547C15.0336 20.5311 15.9142 20.161 16.7122 19.6697L18.0114 20.9689C18.3775 21.3349 18.9709 21.3348 19.3368 20.9686L20.9751 19.329C21.3409 18.9631 21.3407 18.37 20.9749 18.0042L19.6749 16.7042C20.1651 15.9064 20.5341 15.0264 20.7569 14.0896Z" fill="#FFC66C"/>
<path d="M11.9998 17.8101C15.2082 17.8101 17.8091 15.2091 17.8091 12.0007C17.8091 8.79233 15.2082 6.19141 11.9998 6.19141C8.79136 6.19141 6.19043 8.79233 6.19043 12.0007C6.19043 15.2091 8.79136 17.8101 11.9998 17.8101Z" fill="#B3B6C3"/>
<path d="M11.9999 15.7479C14.0698 15.7479 15.7479 14.0698 15.7479 11.9999C15.7479 9.92997 14.0698 8.25195 11.9999 8.25195C9.92997 8.25195 8.25195 9.92997 8.25195 11.9999C8.25195 14.0698 9.92997 15.7479 11.9999 15.7479Z" fill="white"/>
<path d="M12.0005 18.2775C10.3236 18.2775 8.74709 17.6246 7.56138 16.4388C6.37567 15.2531 5.72266 13.6766 5.72266 11.9997C5.72266 10.3229 6.37563 8.74636 7.56138 7.56065C9.43859 5.68344 12.3089 5.18975 14.7039 6.33205C14.9374 6.44347 15.0364 6.72304 14.9251 6.95662C14.8136 7.1901 14.5341 7.28906 14.3005 7.17777C12.263 6.20586 9.821 6.62605 8.22387 8.22318C7.21512 9.23189 6.65955 10.5731 6.65955 11.9997C6.65955 13.4263 7.21512 14.7676 8.22387 15.7763C9.23262 16.785 10.5738 17.3406 12.0004 17.3406C13.427 17.3406 14.7683 16.785 15.777 15.7763C17.4349 14.1183 17.8213 11.6088 16.7386 9.53161C16.6189 9.3022 16.708 9.01922 16.9375 8.89959C17.1669 8.77992 17.4498 8.86903 17.5695 9.09848C18.1823 10.2741 18.4046 11.5923 18.2122 12.9106C18.016 14.2553 17.4031 15.4753 16.4396 16.4389C15.2538 17.6245 13.6774 18.2775 12.0005 18.2775Z" fill="black"/>
<path d="M16.1274 8.38019C16.0066 8.38019 15.886 8.33383 15.7944 8.2412L15.7769 8.22362C15.5939 8.04067 15.5939 7.74404 15.7769 7.56104C15.9598 7.37809 16.2564 7.37809 16.4394 7.56104L16.4605 7.58223C16.6425 7.76617 16.6409 8.06275 16.4569 8.24476C16.3656 8.33509 16.2465 8.38019 16.1274 8.38019Z" fill="black"/>
<path d="M12.0093 16.2193C11.5575 16.2193 11.1008 16.1463 10.6548 15.9966C10.4096 15.9143 10.2775 15.6486 10.3599 15.4034C10.4422 15.1581 10.7079 15.0259 10.9531 15.1084C12.1427 15.5078 13.4324 15.2052 14.3191 14.3186C14.9385 13.6992 15.2796 12.8757 15.2796 11.9997C15.2796 11.1237 14.9385 10.3002 14.3191 9.68076C13.6997 9.0613 12.8762 8.72019 12.0002 8.72019C11.1242 8.72019 10.3006 9.0613 9.68124 9.68071C8.80284 10.5591 8.49698 11.8388 8.88281 13.0206C8.96311 13.2666 8.82886 13.5311 8.58291 13.6114C8.33695 13.6917 8.07244 13.5575 7.99214 13.3115C7.4962 11.7924 7.88953 10.1474 9.01875 9.01818C9.81516 8.22177 10.8739 7.7832 12.0002 7.7832C13.1265 7.7832 14.1853 8.22181 14.9817 9.01822C15.7781 9.81463 16.2167 10.8734 16.2167 11.9997C16.2167 13.1259 15.7781 14.1848 14.9817 14.9812C14.1742 15.7886 13.1067 16.2193 12.0093 16.2193Z" fill="black"/>
<path d="M9.36383 15.1331C9.24467 15.1331 9.12551 15.088 9.03415 14.9975L9.01807 14.9814C8.83512 14.7985 8.83512 14.5019 9.01807 14.3189C9.20103 14.1359 9.49765 14.1359 9.68066 14.3189L9.69359 14.3317C9.87744 14.5139 9.87884 14.8104 9.69673 14.9943C9.60514 15.0868 9.48453 15.1331 9.36383 15.1331Z" fill="black"/>
<path d="M13.159 23.9989H10.8411C10.0661 23.9989 9.4356 23.3684 9.4356 22.5934V21.1169C8.71274 20.9141 8.01819 20.626 7.36283 20.2572L6.32009 21.2999C6.05459 21.5654 5.70162 21.7116 5.32624 21.7116C5.32615 21.7116 5.3261 21.7116 5.32601 21.7116C4.95049 21.7116 4.59752 21.5652 4.33211 21.2996L2.69373 19.66C2.14613 19.112 2.14627 18.2205 2.6941 17.6727L3.73787 16.6289C3.37009 15.974 3.08293 15.28 2.88081 14.5577H1.40551C1.02994 14.5577 0.676925 14.4114 0.411424 14.1458C0.145923 13.8802 -0.000187321 13.5271 1.80238e-07 13.1515L0.00126581 10.8336C0.00168769 10.059 0.632206 9.4289 1.40677 9.4289H2.88428C3.08706 8.70819 3.37454 8.01561 3.74233 7.36217L2.69954 6.31943C2.43404 6.05388 2.28784 5.70082 2.28788 5.32535C2.28793 4.94979 2.43428 4.59686 2.69987 4.33141L4.33947 2.69303C4.88744 2.14534 5.77891 2.14557 6.32674 2.6934L7.37056 3.73717C8.02353 3.37047 8.71555 3.08387 9.43565 2.88179V1.40551C9.43565 0.630518 10.0662 0 10.8412 0H13.159C13.934 0 14.5645 0.630518 14.5645 1.40551V2.88193C15.2846 3.08401 15.9766 3.37061 16.6296 3.73731L17.6734 2.69349C18.2213 2.14566 19.1127 2.14552 19.6607 2.69317L21.3003 4.3315C21.566 4.59696 21.7123 4.94993 21.7123 5.32544C21.7124 5.70096 21.5662 6.05398 21.3006 6.31953L20.2579 7.36226C20.6256 8.01566 20.9131 8.70828 21.1159 9.42899H22.5934C23.368 9.42899 23.9985 10.0592 23.9989 10.8337L24.0002 13.1516C24.0004 13.5271 23.8543 13.8803 23.5888 14.1459C23.3233 14.4115 22.9702 14.5578 22.5947 14.5578H21.1194C20.9173 15.2801 20.6301 15.974 20.2623 16.629L21.3061 17.6728C21.854 18.2206 21.8541 19.1121 21.3065 19.6601L19.6681 21.2997C19.4027 21.5653 19.0497 21.7116 18.6742 21.7116C18.6742 21.7116 18.674 21.7116 18.6739 21.7116C18.2985 21.7116 17.9456 21.5655 17.6801 21.3L16.6374 20.2572C15.982 20.6261 15.2874 20.9142 14.5646 21.117V22.5934C14.5644 23.3684 13.934 23.9989 13.159 23.9989ZM7.2882 19.201C7.37272 19.201 7.4577 19.2237 7.53364 19.2705C8.30253 19.7438 9.13663 20.0898 10.0128 20.2988C10.2238 20.3491 10.3726 20.5377 10.3726 20.7545V22.5933C10.3726 22.8517 10.5828 23.0618 10.8412 23.0618H13.159C13.4174 23.0618 13.6276 22.8517 13.6276 22.5933V20.7545C13.6276 20.5377 13.7764 20.3492 13.9874 20.2988C14.8636 20.0898 15.6977 19.7438 16.4665 19.2705C16.6513 19.1567 16.89 19.1847 17.0434 19.3381L18.3426 20.6373C18.4311 20.7258 18.5488 20.7745 18.674 20.7745C18.7992 20.7745 18.9168 20.7257 19.0053 20.6372L20.6437 18.9976C20.8262 18.8149 20.8262 18.5178 20.6435 18.3352L19.3436 17.0352C19.1903 16.8819 19.1622 16.6435 19.2757 16.4587C19.7478 15.6902 20.0928 14.8565 20.301 13.9809C20.3511 13.7697 20.5398 13.6207 20.7568 13.6207H22.5947C22.7199 13.6207 22.8376 13.572 22.9261 13.4834C23.0146 13.3949 23.0632 13.2772 23.0632 13.152L23.0619 10.8341C23.0618 10.5759 22.8516 10.3659 22.5934 10.3659H20.7538C20.5371 10.3659 20.3486 10.2172 20.2981 10.0064C20.089 9.13218 19.7435 8.3 19.2712 7.53294C19.1574 7.34815 19.1854 7.10947 19.3388 6.95604L20.638 5.65685C20.7265 5.56835 20.7752 5.45065 20.7752 5.32549C20.7752 5.20029 20.7264 5.08268 20.6379 4.99418L18.9983 3.35579C18.8157 3.17326 18.5185 3.17326 18.3359 3.35594L17.0359 4.65602C16.8827 4.80935 16.6442 4.83747 16.4594 4.72389C15.6927 4.25289 14.8609 3.90841 13.9873 3.7C13.7763 3.6497 13.6275 3.46117 13.6275 3.24428V1.40551C13.6275 1.14718 13.4173 0.936988 13.1589 0.936988H10.8411C10.5827 0.936988 10.3725 1.14718 10.3725 1.40551V3.24428C10.3725 3.46112 10.2237 3.64965 10.0127 3.7C9.13911 3.90841 8.30736 4.25289 7.54058 4.72389C7.35579 4.83738 7.11734 4.80925 6.96411 4.65602L5.66412 3.35603C5.48144 3.17336 5.18435 3.17336 5.00172 3.35589L3.36208 4.99427C3.27353 5.08277 3.22478 5.20043 3.22478 5.32558C3.22478 5.45074 3.27348 5.56844 3.36198 5.65694L4.66117 6.95614C4.81455 7.10956 4.84263 7.34825 4.72882 7.53303C4.25655 8.30014 3.91103 9.13232 3.70187 10.0065C3.65144 10.2173 3.463 10.366 3.2462 10.366H1.40677C1.14858 10.366 0.938394 10.576 0.938254 10.8343L0.936988 13.1521C0.936941 13.2773 0.985598 13.395 1.0741 13.4835C1.1626 13.5721 1.2803 13.6208 1.40546 13.6208H3.24339C3.46037 13.6208 3.64895 13.7698 3.6992 13.9809C3.90742 14.8566 4.25242 15.6902 4.7245 16.4588C4.83799 16.6435 4.80991 16.882 4.65663 17.0353L3.35664 18.3353C3.17401 18.5179 3.17397 18.815 3.3565 18.9977L4.99488 20.6373C5.08338 20.7259 5.20104 20.7746 5.32619 20.7746H5.32629C5.45144 20.7746 5.56905 20.7259 5.65755 20.6374L6.95675 19.3382C7.04707 19.2478 7.16707 19.201 7.2882 19.201Z" fill="black"/>
</g>
<defs>
<clipPath id="clip0_9725_21603">
<rect width="24" height="24" fill="white"/>
</clipPath>
</defs>
</svg>
