<svg width="28" height="31" viewBox="0 0 28 31" fill="none" xmlns="http://www.w3.org/2000/svg">
<path d="M13.428 25.043H2C1.46957 25.043 0.96086 24.8323 0.585787 24.4572C0.210714 24.0821 0 23.5734 0 23.043V21.043H15.349L13.428 25.043Z" fill="#D3DCFB"/>
<path d="M26.002 9.04297V23.043H2.00195C1.47152 23.043 0.962811 22.8323 0.587738 22.4572C0.212665 22.0821 0.00195312 21.5734 0.00195312 21.043V9.04297L14.002 4.04297L26.002 9.04297Z" fill="#EBF5FC"/>
<path d="M3.53198 13.0421H2.46998C2.34559 13.0421 2.2263 12.9926 2.13834 12.9047C2.05039 12.8167 2.00098 12.6974 2.00098 12.5731V11.5081C2.00098 11.3837 2.05039 11.2644 2.13834 11.1764C2.2263 11.0885 2.34559 11.0391 2.46998 11.0391H3.53198C3.65637 11.0391 3.77565 11.0885 3.86361 11.1764C3.95156 11.2644 4.00098 11.3837 4.00098 11.5081V12.5701C4.00137 12.6319 3.98953 12.6932 3.96614 12.7505C3.94275 12.8077 3.90827 12.8598 3.86468 12.9036C3.82109 12.9475 3.76925 12.9823 3.71215 13.0061C3.65505 13.0298 3.59382 13.0421 3.53198 13.0421Z" fill="#3C58A0"/>
<path d="M7.531 13.0421H6.469C6.34462 13.0421 6.22532 12.9926 6.13737 12.9047C6.04941 12.8167 6 12.6974 6 12.5731V11.5081C6 11.3837 6.04941 11.2644 6.13737 11.1764C6.22532 11.0885 6.34462 11.0391 6.469 11.0391H7.531C7.65538 11.0391 7.77468 11.0885 7.86263 11.1764C7.95059 11.2644 8 11.3837 8 11.5081V12.5701C8.0004 12.6319 7.98856 12.6932 7.96516 12.7505C7.94177 12.8077 7.90728 12.8598 7.86369 12.9036C7.8201 12.9475 7.76827 12.9823 7.71117 13.0061C7.65408 13.0298 7.59284 13.0421 7.531 13.0421Z" fill="#3C58A0"/>
<path d="M11.5321 13.0421H10.4651C10.3407 13.0421 10.2214 12.9926 10.1335 12.9047C10.0455 12.8167 9.99609 12.6974 9.99609 12.5731V11.5081C9.99609 11.3837 10.0455 11.2644 10.1335 11.1764C10.2214 11.0885 10.3407 11.0391 10.4651 11.0391H11.5271C11.6515 11.0391 11.7708 11.0885 11.8587 11.1764C11.9467 11.2644 11.9961 11.3837 11.9961 11.5081V12.5701C11.9969 12.6941 11.9485 12.8134 11.8616 12.9019C11.7746 12.9903 11.6561 13.0407 11.5321 13.0421Z" fill="#3C58A0"/>
<path d="M15.532 13.0421H14.47C14.3456 13.0421 14.2263 12.9926 14.1384 12.9047C14.0504 12.8167 14.001 12.6974 14.001 12.5731V11.5081C14.001 11.3837 14.0504 11.2644 14.1384 11.1764C14.2263 11.0885 14.3456 11.0391 14.47 11.0391H15.532C15.6564 11.0391 15.7757 11.0885 15.8636 11.1764C15.9516 11.2644 16.001 11.3837 16.001 11.5081V12.5701C16.0014 12.6319 15.9895 12.6932 15.9662 12.7505C15.9428 12.8077 15.9083 12.8598 15.8647 12.9036C15.8211 12.9475 15.7693 12.9823 15.7122 13.0061C15.6551 13.0298 15.5938 13.0421 15.532 13.0421Z" fill="#3C58A0"/>
<path d="M19.531 13.0421H18.469C18.3446 13.0421 18.2253 12.9926 18.1374 12.9047C18.0494 12.8167 18 12.6974 18 12.5731V11.5081C18 11.3837 18.0494 11.2644 18.1374 11.1764C18.2253 11.0885 18.3446 11.0391 18.469 11.0391H19.531C19.6554 11.0391 19.7747 11.0885 19.8626 11.1764C19.9506 11.2644 20 11.3837 20 11.5081V12.5701C20.0004 12.6319 19.9886 12.6932 19.9652 12.7505C19.9418 12.8077 19.9073 12.8598 19.8637 12.9036C19.8201 12.9475 19.7683 12.9823 19.7112 13.0061C19.6541 13.0298 19.5928 13.0421 19.531 13.0421Z" fill="#3C58A0"/>
<path d="M23.531 13.0421H22.469C22.3446 13.0421 22.2253 12.9926 22.1374 12.9047C22.0494 12.8167 22 12.6974 22 12.5731V11.5081C22 11.3837 22.0494 11.2644 22.1374 11.1764C22.2253 11.0885 22.3446 11.0391 22.469 11.0391H23.532C23.6564 11.0391 23.7757 11.0885 23.8636 11.1764C23.9516 11.2644 24.001 11.3837 24.001 11.5081V12.5701C24.0014 12.632 23.9895 12.6934 23.9661 12.7507C23.9426 12.808 23.908 12.8601 23.8643 12.904C23.8207 12.9479 23.7687 12.9827 23.7115 13.0064C23.6543 13.0301 23.5929 13.0422 23.531 13.0421Z" fill="#3C58A0"/>
<path d="M3.53198 17.043H2.46998C2.34559 17.043 2.2263 16.9936 2.13834 16.9056C2.05039 16.8177 2.00098 16.6984 2.00098 16.574V15.512C2.00098 15.3876 2.05039 15.2683 2.13834 15.1803C2.2263 15.0924 2.34559 15.043 2.46998 15.043H3.53198C3.65637 15.043 3.77565 15.0924 3.86361 15.1803C3.95156 15.2683 4.00098 15.3876 4.00098 15.512V16.575C4.00071 16.6992 3.95118 16.8182 3.86326 16.9059C3.77533 16.9937 3.65619 17.043 3.53198 17.043Z" fill="#3C58A0"/>
<path d="M7.531 17.043H6.469C6.34462 17.043 6.22532 16.9936 6.13737 16.9056C6.04941 16.8177 6 16.6984 6 16.574V15.512C6 15.3876 6.04941 15.2683 6.13737 15.1803C6.22532 15.0924 6.34462 15.043 6.469 15.043H7.531C7.65538 15.043 7.77468 15.0924 7.86263 15.1803C7.95059 15.2683 8 15.3876 8 15.512V16.575C7.99974 16.6992 7.95021 16.8182 7.86228 16.9059C7.77436 16.9937 7.65521 17.043 7.531 17.043Z" fill="#3C58A0"/>
<path d="M11.5321 17.043H10.4651C10.3407 17.043 10.2214 16.9936 10.1335 16.9056C10.0455 16.8177 9.99609 16.6984 9.99609 16.574V15.512C9.99609 15.3876 10.0455 15.2683 10.1335 15.1803C10.2214 15.0924 10.3407 15.043 10.4651 15.043H11.5271C11.6515 15.043 11.7708 15.0924 11.8587 15.1803C11.9467 15.2683 11.9961 15.3876 11.9961 15.512V16.575C11.9958 16.6983 11.947 16.8166 11.8601 16.9042C11.7733 16.9918 11.6554 17.0417 11.5321 17.043Z" fill="#3C58A0"/>
<path d="M15.998 17.043V15.543C15.998 15.4104 15.9454 15.2832 15.8516 15.1894C15.7578 15.0957 15.6307 15.043 15.498 15.043H14.498C14.3654 15.043 14.2383 15.0957 14.1445 15.1894C14.0507 15.2832 13.998 15.4104 13.998 15.543V16.543C13.998 16.6756 14.0507 16.8027 14.1445 16.8965C14.2383 16.9903 14.3654 17.043 14.498 17.043H15.998Z" fill="#3C58A0"/>
<path d="M3.53198 21.043H2.46998C2.34559 21.043 2.2263 20.9936 2.13834 20.9056C2.05039 20.8177 2.00098 20.6984 2.00098 20.574V19.512C2.00098 19.3876 2.05039 19.2683 2.13834 19.1803C2.2263 19.0924 2.34559 19.043 2.46998 19.043H3.53198C3.65637 19.043 3.77565 19.0924 3.86361 19.1803C3.95156 19.2683 4.00098 19.3876 4.00098 19.512V20.576C4.00045 20.7 3.9508 20.8188 3.8629 20.9063C3.77501 20.9938 3.65602 21.043 3.53198 21.043Z" fill="#3C58A0"/>
<path d="M7.531 21.043H6.469C6.34462 21.043 6.22532 20.9936 6.13737 20.9056C6.04941 20.8177 6 20.6984 6 20.574V19.512C6 19.3876 6.04941 19.2683 6.13737 19.1803C6.22532 19.0924 6.34462 19.043 6.469 19.043H7.531C7.65538 19.043 7.77468 19.0924 7.86263 19.1803C7.95059 19.2683 8 19.3876 8 19.512V20.576C7.99947 20.7 7.94982 20.8188 7.86192 20.9063C7.77403 20.9938 7.65504 21.043 7.531 21.043Z" fill="#3C58A0"/>
<path d="M11.5321 21.043H10.4651C10.3407 21.043 10.2214 20.9936 10.1335 20.9056C10.0455 20.8177 9.99609 20.6984 9.99609 20.574V19.512C9.99609 19.3876 10.0455 19.2683 10.1335 19.1803C10.2214 19.0924 10.3407 19.043 10.4651 19.043H11.5271C11.6515 19.043 11.7708 19.0924 11.8587 19.1803C11.9467 19.2683 11.9961 19.3876 11.9961 19.512V20.576C11.9956 20.6991 11.9466 20.8172 11.8598 20.9046C11.773 20.992 11.6553 21.0417 11.5321 21.043Z" fill="#3C58A0"/>
<path d="M23.5167 11.043H22.4827C22.4221 11.0431 22.362 11.0546 22.3057 11.077C22.3958 11.1125 22.4732 11.1743 22.5278 11.2544C22.5824 11.3344 22.6116 11.4291 22.6117 11.526V12.56C22.6116 12.6569 22.5824 12.7515 22.5278 12.8316C22.4732 12.9116 22.3958 12.9735 22.3057 13.009C22.362 13.0314 22.4221 13.0429 22.4827 13.043H23.5167C23.6448 13.043 23.7676 12.9921 23.8582 12.9015C23.9488 12.8109 23.9997 12.6881 23.9997 12.56V11.526C23.9997 11.3979 23.9488 11.275 23.8582 11.1844C23.7676 11.0939 23.6448 11.043 23.5167 11.043Z" fill="#2A428C"/>
<path d="M19.5167 11.043H18.4827C18.4221 11.0431 18.362 11.0546 18.3057 11.077C18.3958 11.1125 18.4732 11.1743 18.5278 11.2544C18.5824 11.3344 18.6116 11.4291 18.6117 11.526V12.56C18.6116 12.6569 18.5824 12.7515 18.5278 12.8316C18.4732 12.9116 18.3958 12.9735 18.3057 13.009C18.362 13.0314 18.422 13.0429 18.4827 13.043H19.5167C19.6448 13.043 19.7676 12.9921 19.8582 12.9015C19.9488 12.8109 19.9997 12.6881 19.9997 12.56V11.526C19.9997 11.3979 19.9488 11.275 19.8582 11.1844C19.7676 11.0939 19.6448 11.043 19.5167 11.043Z" fill="#2A428C"/>
<path d="M15.5176 11.043H14.4836C14.423 11.0431 14.363 11.0546 14.3066 11.077C14.3968 11.1125 14.4742 11.1743 14.5288 11.2544C14.5833 11.3344 14.6126 11.4291 14.6126 11.526V12.56C14.6126 12.6569 14.5833 12.7515 14.5288 12.8316C14.4742 12.9116 14.3968 12.9735 14.3066 13.009C14.363 13.0314 14.423 13.0429 14.4836 13.043H15.5176C15.6457 13.043 15.7686 12.9921 15.8592 12.9015C15.9498 12.8109 16.0006 12.6881 16.0006 12.56V11.526C16.0006 11.3979 15.9498 11.275 15.8592 11.1844C15.7686 11.0939 15.6457 11.043 15.5176 11.043Z" fill="#2A428C"/>
<path d="M11.5177 11.043H10.4836C10.423 11.0431 10.363 11.0546 10.3066 11.077C10.3968 11.1125 10.4742 11.1743 10.5288 11.2544C10.5833 11.3344 10.6126 11.4291 10.6126 11.526V12.56C10.6126 12.6569 10.5833 12.7515 10.5288 12.8316C10.4742 12.9116 10.3968 12.9735 10.3066 13.009C10.363 13.0314 10.423 13.0429 10.4836 13.043H11.5177C11.6458 13.043 11.7686 12.9921 11.8592 12.9015C11.9498 12.8109 12.0006 12.6881 12.0006 12.56V11.526C12.0006 11.3979 11.9498 11.275 11.8592 11.1844C11.7686 11.0939 11.6458 11.043 11.5177 11.043Z" fill="#2A428C"/>
<path d="M7.51764 11.043H6.48363C6.42302 11.0431 6.36298 11.0546 6.30664 11.077C6.3968 11.1125 6.47419 11.1743 6.52876 11.2544C6.58333 11.3344 6.61256 11.4291 6.61264 11.526V12.56C6.61256 12.6569 6.58333 12.7515 6.52876 12.8316C6.47419 12.9116 6.3968 12.9735 6.30664 13.009C6.36297 13.0314 6.42302 13.0429 6.48363 13.043H7.51764C7.64574 13.043 7.76859 12.9921 7.85917 12.9015C7.94975 12.8109 8.00064 12.6881 8.00064 12.56V11.526C8.00064 11.3979 7.94975 11.275 7.85917 11.1844C7.76859 11.0939 7.64574 11.043 7.51764 11.043Z" fill="#2A428C"/>
<path d="M3.51764 11.043H2.48364C2.42303 11.0431 2.36298 11.0546 2.30664 11.077C2.3968 11.1125 2.47419 11.1743 2.52876 11.2544C2.58333 11.3344 2.61256 11.4291 2.61264 11.526V12.56C2.61256 12.6569 2.58333 12.7515 2.52876 12.8316C2.47419 12.9116 2.3968 12.9735 2.30664 13.009C2.36297 13.0314 2.42302 13.0429 2.48364 13.043H3.51764C3.64574 13.043 3.76859 12.9921 3.85917 12.9015C3.94975 12.8109 4.00064 12.6881 4.00064 12.56V11.526C4.00064 11.3979 3.94975 11.275 3.85917 11.1844C3.76859 11.0939 3.64574 11.043 3.51764 11.043Z" fill="#2A428C"/>
<path d="M3.51764 15.043H2.48364C2.42303 15.0431 2.36298 15.0546 2.30664 15.077C2.3968 15.1125 2.47419 15.1743 2.52876 15.2544C2.58333 15.3344 2.61256 15.4291 2.61264 15.526V16.56C2.61256 16.6569 2.58333 16.7515 2.52876 16.8316C2.47419 16.9116 2.3968 16.9735 2.30664 17.009C2.36297 17.0314 2.42302 17.0429 2.48364 17.043H3.51764C3.58107 17.043 3.64388 17.0305 3.70248 17.0062C3.76108 16.9819 3.81432 16.9463 3.85917 16.9015C3.90402 16.8566 3.9396 16.8034 3.96387 16.7448C3.98815 16.6862 4.00064 16.6234 4.00064 16.56V15.526C4.00064 15.3979 3.94975 15.275 3.85917 15.1844C3.76859 15.0939 3.64574 15.043 3.51764 15.043Z" fill="#2A428C"/>
<path d="M3.51764 19.043H2.48364C2.42303 19.0431 2.36298 19.0546 2.30664 19.077C2.3968 19.1125 2.47419 19.1743 2.52876 19.2544C2.58333 19.3344 2.61256 19.4291 2.61264 19.526V20.56C2.61256 20.6569 2.58333 20.7515 2.52876 20.8316C2.47419 20.9116 2.3968 20.9735 2.30664 21.009C2.36297 21.0314 2.42302 21.0429 2.48364 21.043H3.51764C3.64574 21.043 3.76859 20.9921 3.85917 20.9015C3.94975 20.8109 4.00064 20.6881 4.00064 20.56V19.526C4.00064 19.3979 3.94975 19.275 3.85917 19.1844C3.76859 19.0939 3.64574 19.043 3.51764 19.043Z" fill="#2A428C"/>
<path d="M7.51764 15.043H6.48363C6.42302 15.0431 6.36298 15.0546 6.30664 15.077C6.3968 15.1125 6.47419 15.1743 6.52876 15.2544C6.58333 15.3344 6.61256 15.4291 6.61264 15.526V16.56C6.61256 16.6569 6.58333 16.7515 6.52876 16.8316C6.47419 16.9116 6.3968 16.9735 6.30664 17.009C6.36297 17.0314 6.42302 17.0429 6.48363 17.043H7.51764C7.58107 17.043 7.64388 17.0305 7.70248 17.0062C7.76108 16.9819 7.81432 16.9463 7.85917 16.9015C7.90402 16.8566 7.9396 16.8034 7.96387 16.7448C7.98815 16.6862 8.00064 16.6234 8.00064 16.56V15.526C8.00064 15.3979 7.94975 15.275 7.85917 15.1844C7.76859 15.0939 7.64574 15.043 7.51764 15.043Z" fill="#2A428C"/>
<path d="M7.51764 19.043H6.48363C6.42302 19.0431 6.36298 19.0546 6.30664 19.077C6.3968 19.1125 6.47419 19.1743 6.52876 19.2544C6.58333 19.3344 6.61256 19.4291 6.61264 19.526V20.56C6.61256 20.6569 6.58333 20.7515 6.52876 20.8316C6.47419 20.9116 6.3968 20.9735 6.30664 21.009C6.36297 21.0314 6.42302 21.0429 6.48363 21.043H7.51764C7.64574 21.043 7.76859 20.9921 7.85917 20.9015C7.94975 20.8109 8.00064 20.6881 8.00064 20.56V19.526C8.00064 19.3979 7.94975 19.275 7.85917 19.1844C7.76859 19.0939 7.64574 19.043 7.51764 19.043Z" fill="#2A428C"/>
<path d="M11.5177 15.043H10.4836C10.423 15.0431 10.363 15.0546 10.3066 15.077C10.3968 15.1125 10.4742 15.1743 10.5288 15.2544C10.5833 15.3344 10.6126 15.4291 10.6126 15.526V16.56C10.6126 16.6569 10.5833 16.7515 10.5288 16.8316C10.4742 16.9116 10.3968 16.9735 10.3066 17.009C10.363 17.0314 10.423 17.0429 10.4836 17.043H11.5177C11.5811 17.043 11.6439 17.0305 11.7025 17.0062C11.7611 16.9819 11.8143 16.9463 11.8592 16.9015C11.904 16.8566 11.9396 16.8034 11.9639 16.7448C11.9882 16.6862 12.0006 16.6234 12.0006 16.56V15.526C12.0006 15.3979 11.9498 15.275 11.8592 15.1844C11.7686 15.0939 11.6458 15.043 11.5177 15.043Z" fill="#2A428C"/>
<path d="M15.9996 17.043V15.526C15.9996 15.3979 15.9488 15.275 15.8582 15.1844C15.7676 15.0939 15.6448 15.043 15.5167 15.043H14.4836C14.423 15.0431 14.363 15.0546 14.3066 15.077C14.3968 15.1125 14.4742 15.1743 14.5288 15.2544C14.5833 15.3344 14.6126 15.4291 14.6126 15.526V16.56C14.6126 16.6569 14.5833 16.7515 14.5288 16.8316C14.4742 16.9116 14.3968 16.9735 14.3066 17.009C14.363 17.0314 14.423 17.0429 14.4836 17.043H16.0006H15.9996Z" fill="#2A428C"/>
<path d="M11.5177 19.043H10.4836C10.423 19.0431 10.363 19.0546 10.3066 19.077C10.3968 19.1125 10.4742 19.1743 10.5288 19.2544C10.5833 19.3344 10.6126 19.4291 10.6126 19.526V20.56C10.6126 20.6569 10.5833 20.7515 10.5288 20.8316C10.4742 20.9116 10.3968 20.9735 10.3066 21.009C10.363 21.0314 10.423 21.0429 10.4836 21.043H11.5177C11.6458 21.043 11.7686 20.9921 11.8592 20.9015C11.9498 20.8109 12.0006 20.6881 12.0006 20.56V19.526C12.0006 19.3979 11.9498 19.275 11.8592 19.1844C11.7686 19.0939 11.6458 19.043 11.5177 19.043Z" fill="#2A428C"/>
<path d="M24.6133 8.46484V23.0439H25.9993V9.04385L24.6133 8.46484Z" fill="#D3DCFB"/>
<path d="M26.002 9.04297V4.04297C26.002 3.51254 25.7912 3.00383 25.4162 2.62876C25.0411 2.25368 24.5324 2.04297 24.002 2.04297H2.00195C1.47152 2.04297 0.962811 2.25368 0.587738 2.62876C0.212665 3.00383 0.00195312 3.51254 0.00195312 4.04297V9.04297H26.002Z" fill="#FF4155"/>
<path d="M6.30064 4.49534H5.00065C4.93944 4.49822 4.87828 4.48865 4.82087 4.46721C4.76346 4.44577 4.711 4.4129 4.66666 4.3706C4.62233 4.3283 4.58703 4.27744 4.56291 4.2211C4.5388 4.16477 4.52637 4.10412 4.52637 4.04284C4.52637 3.98156 4.5388 3.92092 4.56291 3.86458C4.58703 3.80825 4.62233 3.75739 4.66666 3.71509C4.711 3.67279 4.76346 3.63992 4.82087 3.61848C4.87828 3.59704 4.93944 3.58747 5.00065 3.59034H6.30064C6.41697 3.59581 6.52673 3.64588 6.60712 3.73014C6.68752 3.8144 6.73237 3.92638 6.73237 4.04284C6.73237 4.1593 6.68752 4.27129 6.60712 4.35555C6.52673 4.43981 6.41697 4.48987 6.30064 4.49534Z" fill="#E80054"/>
<path d="M9.49637 4.49534H8.19637C8.08003 4.48987 7.97028 4.43981 7.88989 4.35555C7.8095 4.27129 7.76465 4.1593 7.76465 4.04284C7.76465 3.92638 7.8095 3.8144 7.88989 3.73014C7.97028 3.64588 8.08003 3.59581 8.19637 3.59034H9.49637C9.55758 3.58747 9.61874 3.59704 9.67615 3.61848C9.73355 3.63992 9.78602 3.67279 9.83035 3.71509C9.87469 3.75739 9.90998 3.80825 9.9341 3.86458C9.95821 3.92092 9.97064 3.98156 9.97064 4.04284C9.97064 4.10412 9.95821 4.16477 9.9341 4.2211C9.90998 4.27744 9.87469 4.3283 9.83035 4.3706C9.78602 4.4129 9.73355 4.44577 9.67615 4.46721C9.61874 4.48865 9.55758 4.49822 9.49637 4.49534Z" fill="#E80054"/>
<path d="M17.8046 4.49534H16.5045C16.4433 4.49822 16.3822 4.48865 16.3248 4.46721C16.2674 4.44577 16.2149 4.4129 16.1706 4.3706C16.1262 4.3283 16.0909 4.27744 16.0668 4.2211C16.0427 4.16477 16.0303 4.10412 16.0303 4.04284C16.0303 3.98156 16.0427 3.92092 16.0668 3.86458C16.0909 3.80825 16.1262 3.75739 16.1706 3.71509C16.2149 3.67279 16.2674 3.63992 16.3248 3.61848C16.3822 3.59704 16.4433 3.58747 16.5045 3.59034H17.8046C17.8658 3.58747 17.9269 3.59704 17.9843 3.61848C18.0418 3.63992 18.0942 3.67279 18.1385 3.71509C18.1829 3.75739 18.2182 3.80825 18.2423 3.86458C18.2664 3.92092 18.2788 3.98156 18.2788 4.04284C18.2788 4.10412 18.2664 4.16477 18.2423 4.2211C18.2182 4.27744 18.1829 4.3283 18.1385 4.3706C18.0942 4.4129 18.0418 4.44577 17.9843 4.46721C17.9269 4.48865 17.8658 4.49822 17.8046 4.49534Z" fill="#E80054"/>
<path d="M21.0003 4.49534H19.7003C19.5839 4.48987 19.4742 4.43981 19.3938 4.35555C19.3134 4.27129 19.2686 4.1593 19.2686 4.04284C19.2686 3.92638 19.3134 3.8144 19.3938 3.73014C19.4742 3.64588 19.5839 3.59581 19.7003 3.59034H21.0003C21.0615 3.58747 21.1226 3.59704 21.1801 3.61848C21.2375 3.63992 21.2899 3.67279 21.3343 3.71509C21.3786 3.75739 21.4139 3.80825 21.438 3.86458C21.4621 3.92092 21.4745 3.98156 21.4745 4.04284C21.4745 4.10412 21.4621 4.16477 21.438 4.2211C21.4139 4.27744 21.3786 4.3283 21.3343 4.3706C21.2899 4.4129 21.2375 4.44577 21.1801 4.46721C21.1226 4.48865 21.0615 4.49822 21.0003 4.49534Z" fill="#E80054"/>
<path d="M8.5 3.79297C8.5 4.12449 8.3683 4.44243 8.13388 4.67685C7.89946 4.91127 7.58152 5.04297 7.25 5.04297C6.91848 5.04297 6.60054 4.91127 6.36612 4.67685C6.1317 4.44243 6 4.12449 6 3.79297V1.29297C6 0.961448 6.1317 0.643506 6.36612 0.409085C6.60054 0.174665 6.91848 0.0429688 7.25 0.0429688C7.58152 0.0429688 7.89946 0.174665 8.13388 0.409085C8.3683 0.643506 8.5 0.961448 8.5 1.29297V3.79297Z" fill="#EBF5FC"/>
<path d="M20.001 3.79297C20.001 4.12449 19.8693 4.44243 19.6349 4.67685C19.4004 4.91127 19.0825 5.04297 18.751 5.04297C18.4195 5.04297 18.1015 4.91127 17.8671 4.67685C17.6327 4.44243 17.501 4.12449 17.501 3.79297V1.29297C17.501 0.961448 17.6327 0.643506 17.8671 0.409085C18.1015 0.174665 18.4195 0.0429688 18.751 0.0429688C19.0825 0.0429688 19.4004 0.174665 19.6349 0.409085C19.8693 0.643506 20.001 0.961448 20.001 1.29297V3.79297Z" fill="#EBF5FC"/>
<path d="M18.7506 0.0429695C18.5039 0.042702 18.2627 0.115799 18.0576 0.252969C18.229 0.366941 18.3696 0.521541 18.4668 0.702996C18.5639 0.884452 18.6147 1.08713 18.6146 1.29297V3.79297C18.6146 3.99879 18.5638 4.20144 18.4666 4.38288C18.3695 4.56432 18.229 4.71893 18.0576 4.83297C18.2459 4.95837 18.4646 5.03034 18.6905 5.04121C18.9164 5.05209 19.1411 5.00146 19.3405 4.89472C19.5399 4.78798 19.7066 4.62913 19.8229 4.43511C19.9391 4.24109 20.0006 4.01915 20.0006 3.79297V1.29297C20.0006 0.961449 19.8689 0.643506 19.6345 0.409086C19.4001 0.174666 19.0821 0.0429695 18.7506 0.0429695Z" fill="#D3DCFB"/>
<path d="M7.24966 0.042971C7.00261 0.042505 6.76101 0.115611 6.55566 0.252971C6.72701 0.367007 6.86752 0.52162 6.96469 0.703061C7.06187 0.884502 7.11269 1.08715 7.11266 1.29297V3.79297C7.11269 3.9988 7.06187 4.20144 6.96469 4.38288C6.86752 4.56432 6.72701 4.71894 6.55566 4.83297C6.74393 4.95891 6.96287 5.03132 7.1891 5.04248C7.41533 5.05363 7.64033 5.00311 7.84007 4.89631C8.03981 4.7895 8.20678 4.63044 8.32314 4.4361C8.43949 4.24177 8.50084 4.01947 8.50066 3.79297V1.29297C8.50066 1.12873 8.46829 0.966108 8.40541 0.814386C8.34253 0.662663 8.25036 0.52482 8.13419 0.408734C8.01801 0.292647 7.88009 0.200594 7.72832 0.137834C7.57654 0.0750748 7.4139 0.0428396 7.24966 0.042971Z" fill="#D3DCFB"/>
<path d="M24.0023 2.04297H22.6133C23.1437 2.04297 23.6524 2.25368 24.0275 2.62876C24.4026 3.00383 24.6133 3.51254 24.6133 4.04297V9.04297H26.0023V4.04297C26.0023 3.51254 25.7916 3.00383 25.4165 2.62876C25.0414 2.25368 24.5327 2.04297 24.0023 2.04297Z" fill="#E80054"/>
<path d="M0 6.58984H26V7.49484H0V6.58984Z" fill="#E80054"/>
<path d="M20.501 30.043C24.6431 30.043 28.001 26.6851 28.001 22.543C28.001 18.4008 24.6431 15.043 20.501 15.043C16.3588 15.043 13.001 18.4008 13.001 22.543C13.001 26.6851 16.3588 30.043 20.501 30.043Z" fill="#4FABF7"/>
<path d="M20.501 28.043C23.5385 28.043 26.001 25.5805 26.001 22.543C26.001 19.5054 23.5385 17.043 20.501 17.043C17.4634 17.043 15.001 19.5054 15.001 22.543C15.001 25.5805 17.4634 28.043 20.501 28.043Z" fill="#EBF5FC"/>
<path d="M20.5009 21.9941C20.3807 21.9941 20.2655 21.9464 20.1805 21.8614C20.0956 21.7765 20.0479 21.6613 20.0479 21.5411V19.0411C20.0533 18.9248 20.1034 18.815 20.1877 18.7346C20.2719 18.6542 20.3839 18.6094 20.5003 18.6094C20.6168 18.6094 20.7288 18.6542 20.813 18.7346C20.8973 18.815 20.9474 18.9248 20.9529 19.0411V21.5411C20.9529 21.6611 20.9053 21.7762 20.8205 21.8611C20.7358 21.946 20.6208 21.9938 20.5009 21.9941Z" fill="#3C58A0"/>
<path d="M23.0006 22.9953H21.5006C21.4394 22.9982 21.3783 22.9887 21.3209 22.9672C21.2635 22.9458 21.211 22.9129 21.1667 22.8706C21.1223 22.8283 21.087 22.7774 21.0629 22.7211C21.0388 22.6648 21.0264 22.6041 21.0264 22.5429C21.0264 22.4816 21.0388 22.4209 21.0629 22.3646C21.087 22.3083 21.1223 22.2574 21.1667 22.2151C21.211 22.1728 21.2635 22.1399 21.3209 22.1185C21.3783 22.097 21.4394 22.0875 21.5006 22.0903H23.0006C23.117 22.0958 23.2267 22.1459 23.3071 22.2301C23.3875 22.3144 23.4324 22.4264 23.4324 22.5429C23.4324 22.6593 23.3875 22.7713 23.3071 22.8556C23.2267 22.9398 23.117 22.9899 23.0006 22.9953Z" fill="#3C58A0"/>
<path d="M20.5006 15.042C20.2666 15.042 20.0346 15.053 19.8066 15.074C21.6669 15.2478 23.3954 16.1096 24.6536 17.4908C25.9118 18.872 26.6092 20.6732 26.6092 22.5415C26.6092 24.4099 25.9118 26.211 24.6536 27.5922C23.3954 28.9734 21.6669 29.8353 19.8066 30.009C20.0356 30.03 20.2666 30.041 20.5006 30.041C22.4898 30.041 24.3974 29.2509 25.804 27.8443C27.2105 26.4378 28.0006 24.5301 28.0006 22.541C28.0006 20.5519 27.2105 18.6443 25.804 17.2377C24.3974 15.8312 22.4898 15.041 20.5006 15.041V15.042Z" fill="#1886EA"/>
<path d="M20.5036 17.042C20.2716 17.0419 20.0398 17.0562 19.8096 17.085C21.1381 17.2531 22.3597 17.9001 23.2452 18.9047C24.1307 19.9093 24.6192 21.2024 24.6192 22.5415C24.6192 23.8807 24.1307 25.1738 23.2452 26.1783C22.3597 27.1829 21.1381 27.8299 19.8096 27.998C20.0398 28.0268 20.2716 28.0412 20.5036 28.041C21.9623 28.041 23.3612 27.4616 24.3927 26.4301C25.4241 25.3987 26.0036 23.9997 26.0036 22.541C26.0036 21.0823 25.4241 19.6834 24.3927 18.6519C23.3612 17.6205 21.9623 17.041 20.5036 17.041V17.042Z" fill="#D3DCFB"/>
<path d="M20.501 23.543C21.0533 23.543 21.501 23.0953 21.501 22.543C21.501 21.9907 21.0533 21.543 20.501 21.543C19.9487 21.543 19.501 21.9907 19.501 22.543C19.501 23.0953 19.9487 23.543 20.501 23.543Z" fill="#FFDD40"/>
</svg>
