<svg width="89" height="127" viewBox="0 0 89 127" fill="none" xmlns="http://www.w3.org/2000/svg">
<path d="M44.5085 97.0884L35.9658 111.903L44.5085 126.717C49.04 126.717 53.3858 125.156 56.5901 122.378C59.7943 119.6 61.5944 115.832 61.5944 111.903C61.5944 107.974 59.7943 104.206 56.5901 101.427C53.3858 98.6492 49.04 97.0884 44.5085 97.0884Z" fill="#002A8D"/>
<path d="M27.4229 111.903C27.4229 113.849 27.8648 115.775 28.7234 117.572C29.582 119.37 30.8405 121.003 32.427 122.378C34.0136 123.754 35.897 124.845 37.9699 125.589C40.0428 126.334 42.2645 126.717 44.5082 126.717V97.0884C39.9768 97.0887 35.631 98.6496 32.427 101.428C29.2229 104.206 27.4229 107.974 27.4229 111.903Z" fill="#002A8D"/>
<path d="M44.5094 0.300781L27.4229 15.1146L44.5082 29.9285C46.608 29.9284 48.6572 30.4875 50.3787 31.5301C52.1001 32.5728 53.4107 34.0486 54.1333 35.7581C54.8559 37.4675 54.9556 39.3282 54.4189 41.0884C53.8821 42.8486 52.7349 44.4234 51.1324 45.5998L44.5082 50.4827L33.1176 70.0771L44.5082 89.6716H61.5947V76.7825L73.2587 68.1809C80.1928 63.0779 85.1532 56.2524 87.4697 48.6265C89.7862 41.0007 89.3472 32.9422 86.212 25.5396C83.0768 18.1371 77.3965 11.7473 69.9385 7.23371C62.4806 2.72009 53.6045 0.300128 44.5094 0.300781Z" fill="#002A8D"/>
<path d="M27.4219 63.0765V89.6787H44.5072V50.4834L27.4219 63.0765Z" fill="#002A8D"/>
<path d="M0.0825195 38.8171V42.5211H34.2544V38.8171C34.2576 36.4607 35.3387 34.2016 37.2604 32.5354C39.1821 30.8691 41.7876 29.9318 44.5054 29.929V0.300293C32.7274 0.31089 21.4354 4.37231 13.1072 11.5933C4.77892 18.8143 0.0947416 28.6051 0.0825195 38.8171Z" fill="#002A8D"/>
</svg>
