<svg width="32" height="33" viewBox="0 0 32 33" fill="none" xmlns="http://www.w3.org/2000/svg">
<g clip-path="url(#clip0_9574_32807)">
<path d="M16 22.523C19.8391 22.523 22.9624 19.3996 22.9624 15.5605V7.08744C22.9624 3.24838 19.8391 0.125 16 0.125C12.1609 0.125 9.03756 3.24838 9.03756 7.08744V15.5604C9.03756 19.3997 12.1609 22.523 16 22.523ZM11.0376 7.08744C11.0376 4.35113 13.2637 2.125 16 2.125C18.7363 2.125 20.9624 4.35113 20.9624 7.08744V15.5604C20.9624 18.2967 18.7363 20.5229 16 20.5229C13.2637 20.5229 11.0376 18.2967 11.0376 15.5604V7.08744ZM27.4743 17.5734C27.006 20.2343 25.6032 22.6722 23.5243 24.4382C21.6763 26.0081 19.3903 26.9584 17 27.1667V30.125H23.5C24.0523 30.125 24.5 30.5727 24.5 31.125C24.5 31.6773 24.0523 32.125 23.5 32.125H8.5C7.94769 32.125 7.5 31.6773 7.5 31.125C7.5 30.5727 7.94769 30.125 8.5 30.125H15V27.1667C12.6097 26.9584 10.3238 26.0081 8.47569 24.4382C6.39681 22.6722 4.99406 20.2343 4.52575 17.5734C4.43006 17.0295 4.79331 16.5109 5.33725 16.4153C5.88113 16.3196 6.39975 16.6829 6.49544 17.2267C7.30963 21.8529 11.3069 25.2104 16 25.2104C20.6931 25.2104 24.6904 21.8528 25.5046 17.2267C25.6003 16.6828 26.1187 16.3194 26.6628 16.4153C27.2068 16.5109 27.57 17.0295 27.4743 17.5734ZM27.4894 6.8605V12.6377C27.4894 13.19 27.0417 13.6377 26.4894 13.6377C25.9371 13.6377 25.4894 13.19 25.4894 12.6377V6.8605C25.4894 6.30819 25.9371 5.8605 26.4894 5.8605C27.0417 5.8605 27.4894 6.30819 27.4894 6.8605ZM32 8.23637V11.2616C32 11.8139 31.5523 12.2616 31 12.2616C30.4477 12.2616 30 11.8139 30 11.2616V8.23637C30 7.68406 30.4477 7.23637 31 7.23637C31.5523 7.23637 32 7.68406 32 8.23637ZM4.51062 12.6376V6.86044C4.51062 6.30813 4.95831 5.86044 5.51062 5.86044C6.06294 5.86044 6.51062 6.30813 6.51062 6.86044V12.6376C6.51062 13.1899 6.06294 13.6376 5.51062 13.6376C4.95831 13.6376 4.51062 13.1899 4.51062 12.6376ZM2 8.23637V11.2616C2 11.8139 1.55231 12.2616 1 12.2616C0.447688 12.2616 0 11.8139 0 11.2616V8.23637C0 7.68406 0.447688 7.23637 1 7.23637C1.55231 7.23637 2 7.68406 2 8.23637Z" fill="#424242"/>
</g>
<defs>
<clipPath id="clip0_9574_32807">
<rect width="32" height="32" fill="white" transform="translate(0 0.125)"/>
</clipPath>
</defs>
</svg>
