<svg width="50" height="50" viewBox="0 0 50 50" fill="none" xmlns="http://www.w3.org/2000/svg">
<g clip-path="url(#clip0_1001_1764)">
<path d="M30.8777 8.39844L3.36699 35.9111C3.22859 36.0499 3.12865 36.2252 3.08106 36.4136L0.0317616 48.6528C-0.0594517 49.0213 0.0488146 49.4131 0.317695 49.682C0.521141 49.8854 0.79835 49.998 1.0819 49.998C1.16875 49.998 1.25759 49.9873 1.34404 49.9655L13.5833 46.9158C13.774 46.8682 13.9473 46.7687 14.0857 46.6303L41.5988 19.1196L30.8777 8.39844Z" fill="#364153"/>
<path d="M48.4173 4.64748L45.3549 1.5851C43.3082 -0.461649 39.7409 -0.459666 37.6966 1.5851L33.9453 5.33634L44.666 16.0571L48.4173 12.3058C49.4397 11.2838 50.0028 9.92357 50.0028 8.47685C50.0028 7.03013 49.4397 5.66986 48.4173 4.64748Z" fill="#364153"/>
</g>
<defs>
<clipPath id="clip0_1001_1764">
<rect width="50" height="50" fill="white"/>
</clipPath>
</defs>
</svg>
