<svg width="50" height="50" viewBox="0 0 50 50" fill="none" xmlns="http://www.w3.org/2000/svg">
<path d="M44.9866 0.585938H5.01729C4.0542 0.585938 3.27344 1.3667 3.27344 2.32979V12.793C3.27344 13.7561 4.0542 14.5368 5.01729 14.5368H8.50498C9.46807 14.5368 10.2488 13.7561 10.2488 12.793V9.30527H20.6423V42.4387H16.2826C15.3195 42.4387 14.5388 43.2194 14.5388 44.1825V47.6702C14.5388 48.6333 15.3195 49.4141 16.2826 49.4141H33.7212C34.6843 49.4141 35.465 48.6333 35.465 47.6702V44.1825C35.465 43.2194 34.6843 42.4387 33.7212 42.4387H29.3615V9.30527H39.755V12.793C39.755 13.7561 40.5357 14.5368 41.4988 14.5368H44.9865C45.9496 14.5368 46.7304 13.7561 46.7304 12.793V2.32979C46.7305 1.3667 45.9497 0.585938 44.9866 0.585938Z" fill="#364153"/>
</svg>
