<svg width="50" height="50" viewBox="0 0 50 50" fill="none" xmlns="http://www.w3.org/2000/svg">
<path d="M46.5557 16.7256L34.0557 4.22564C33.5979 3.76713 33.0541 3.40339 32.4556 3.15521C31.857 2.90704 31.2154 2.7793 30.5674 2.7793C29.9195 2.7793 29.2779 2.90704 28.6793 3.15521C28.0808 3.40339 27.537 3.76713 27.0792 4.22564L3.44634 27.7881C2.98784 28.246 2.62409 28.7897 2.37592 29.3883C2.12774 29.9868 2 30.6285 2 31.2764C2 31.9244 2.12774 32.566 2.37592 33.1645C2.62409 33.7631 2.98784 34.3068 3.44634 34.7647L13.6026 44.9209H7.56353C7.25273 44.9209 6.95466 45.0444 6.73489 45.2642C6.51512 45.484 6.39165 45.782 6.39165 46.0928C6.39165 46.4036 6.51512 46.7017 6.73489 46.9215C6.95466 47.1412 7.25273 47.2647 7.56353 47.2647H44.0557C44.3665 47.2647 44.6646 47.1412 44.8844 46.9215C45.1041 46.7017 45.2276 46.4036 45.2276 46.0928C45.2276 45.782 45.1041 45.484 44.8844 45.2642C44.6646 45.0444 44.3665 44.9209 44.0557 44.9209H25.3526L46.5557 23.7022C47.4779 22.7755 47.9956 21.5213 47.9956 20.2139C47.9956 18.9065 47.4779 17.6524 46.5557 16.7256ZM22.0401 44.9053H16.8917L5.10259 33.1084C4.6193 32.6212 4.34813 31.9627 4.34813 31.2764C4.34813 30.5901 4.6193 29.9316 5.10259 29.4444L16.0401 18.5069L32.2745 34.6709L22.0401 44.9053Z" fill="#364153"/>
</svg>
