<svg width="50" height="50" viewBox="0 0 50 50" fill="none" xmlns="http://www.w3.org/2000/svg">
<path fill-rule="evenodd" clip-rule="evenodd" d="M5.72656 12.4993C5.72656 8.75991 8.75796 5.72852 12.4974 5.72852H29.1641C30.027 5.72852 30.7266 5.02895 30.7266 4.16602C30.7266 3.30308 30.027 2.60352 29.1641 2.60352H12.4974C7.03208 2.60352 2.60156 7.03404 2.60156 12.4993V37.4994C2.60156 42.9648 7.03208 47.3952 12.4974 47.3952H37.4974C42.9628 47.3952 47.3932 42.9648 47.3932 37.4994V20.8327C47.3932 19.9697 46.6936 19.2702 45.8307 19.2702C44.9678 19.2702 44.2682 19.9697 44.2682 20.8327V28.1433C44.1743 28.0681 44.0766 27.9966 43.9753 27.9291L39.0151 24.6223C35.7099 22.4187 31.3089 22.8546 28.4999 25.6635L21.4949 32.6685C18.6859 35.4775 14.2849 35.9133 10.9798 33.7098L5.72656 30.2077V12.4993ZM41.1432 4.16602C41.1432 3.30308 40.4436 2.60352 39.5807 2.60352C38.7178 2.60352 38.0182 3.30308 38.0182 4.16602V8.85352H33.3307C32.4678 8.85352 31.7682 9.55308 31.7682 10.416C31.7682 11.279 32.4678 11.9785 33.3307 11.9785H38.0182V16.666C38.0182 17.529 38.7178 18.2285 39.5807 18.2285C40.4436 18.2285 41.1432 17.529 41.1432 16.666V11.9785H45.8307C46.6936 11.9785 47.3932 11.279 47.3932 10.416C47.3932 9.55308 46.6936 8.85352 45.8307 8.85352H41.1432V4.16602ZM17.7057 22.916C20.5822 22.916 22.9141 20.5842 22.9141 17.7077C22.9141 14.8312 20.5822 12.4993 17.7057 12.4993C14.8293 12.4993 12.4974 14.8312 12.4974 17.7077C12.4974 20.5842 14.8293 22.916 17.7057 22.916Z" fill="#364153"/>
</svg>
