<svg width="50" height="50" viewBox="0 0 50 50" fill="none" xmlns="http://www.w3.org/2000/svg">
<path d="M47.9844 11.3907L38.6094 2.01565C38.4634 1.87084 38.2902 1.75627 38.0999 1.67851C37.9095 1.60075 37.7056 1.56134 37.5 1.56253H34.375V14.0625C34.375 14.8913 34.0458 15.6862 33.4597 16.2722C32.8737 16.8583 32.0788 17.1875 31.25 17.1875H18.75C17.9212 17.1875 17.1263 16.8583 16.5403 16.2722C15.9542 15.6862 15.625 14.8913 15.625 14.0625V1.56253H6.25C5.0068 1.56253 3.81451 2.05639 2.93544 2.93546C2.05636 3.81454 1.5625 5.00682 1.5625 6.25003V43.75C1.5625 44.9932 2.05636 46.1855 2.93544 47.0646C3.81451 47.9437 5.0068 48.4375 6.25 48.4375H9.375V34.375C9.375 33.1318 9.86886 31.9395 10.7479 31.0605C11.627 30.1814 12.8193 29.6875 14.0625 29.6875H35.9375C37.1807 29.6875 38.373 30.1814 39.2521 31.0605C40.1311 31.9395 40.625 33.1318 40.625 34.375V48.4375H43.75C44.9932 48.4375 46.1855 47.9437 47.0646 47.0646C47.9436 46.1855 48.4375 44.9932 48.4375 43.75V12.5C48.4387 12.2944 48.3993 12.0905 48.3215 11.9002C48.2438 11.7098 48.1292 11.5367 47.9844 11.3907Z" fill="#364153"/>
<path d="M18.75 1.5625H31.25V14.0625H18.75V1.5625Z" fill="#364153"/>
<path d="M35.9375 32.8125H14.0625C13.6481 32.8125 13.2507 32.9771 12.9576 33.2701C12.6646 33.5632 12.5 33.9606 12.5 34.375V48.4375H37.5V34.375C37.5 33.9606 37.3354 33.5632 37.0424 33.2701C36.7493 32.9771 36.3519 32.8125 35.9375 32.8125Z" fill="#364153"/>
</svg>
